M48
; DRILL file {KiCad 7.0.10} date Sat Aug  2 07:22:39 2025
; FORMAT={-:-/ absolute / inch / decimal}
; #@! TF.CreationDate,2025-08-02T07:22:39-06:00
; #@! TF.GenerationSoftware,Kicad,Pcbnew,7.0.10
; #@! TF.FileFunction,Plated,1,2,PTH
FMAT,2
INCH
; #@! TA.AperFunction,Plated,PTH,ViaDrill
T1C0.0157
; #@! TA.AperFunction,Plated,PTH,ComponentDrill
T2C0.0295
; #@! TA.AperFunction,Plated,PTH,ComponentDrill
T3C0.0315
; #@! TA.AperFunction,Plated,PTH,ComponentDrill
T4C0.0394
; #@! TA.AperFunction,Plated,PTH,ComponentDrill
T5C0.0591
%
G90
G05
T1
X4.15Y-3.75
X4.15Y-3.85
X4.15Y-3.95
T2
X4.8Y-4.0
X4.85Y-4.0
X4.9Y-4.0
T3
X2.9Y-3.25
X2.9Y-3.35
X2.9Y-3.45
X2.9Y-3.55
X2.9Y-3.65
X2.9Y-3.75
X2.9Y-3.85
X2.9Y-3.95
X3.2Y-3.25
X3.2Y-3.35
X3.2Y-3.45
X3.2Y-3.55
X3.2Y-3.65
X3.2Y-3.75
X3.2Y-3.85
X3.2Y-3.95
X3.675Y-3.25
X3.675Y-3.375
X3.675Y-3.5
X3.675Y-3.625
X3.675Y-3.75
X3.675Y-3.875
X3.775Y-3.25
X3.775Y-3.375
X3.775Y-3.5
X3.775Y-3.625
X3.775Y-3.75
X3.775Y-3.875
X4.0Y-3.2
X4.0Y-3.3
X4.0Y-3.4
X4.0Y-3.5
X4.0Y-3.6
X4.0Y-3.7
X4.0Y-3.8
X4.0Y-3.9
X4.0Y-4.0
X4.1008Y-4.15
X4.1992Y-4.15
X4.3Y-3.2
X4.3Y-3.3
X4.3Y-3.4
X4.3Y-3.5
X4.3Y-3.6
X4.3Y-3.7
X4.3Y-3.8
X4.3Y-3.9
X4.3Y-4.0
X4.5Y-3.55
X4.5Y-3.675
X4.5Y-3.8
X4.5Y-3.925
X4.6Y-3.55
X4.6Y-3.675
X4.6Y-3.8
X4.6Y-3.925
X4.625Y-4.15
X4.75Y-3.2516
X4.75Y-3.35
X4.8531Y-3.5
X4.95Y-3.3
X4.95Y-3.65
X5.025Y-4.15
X5.05Y-3.3
X5.05Y-3.5
X5.05Y-3.65
T4
X3.45Y-3.35
X3.45Y-3.45
X3.45Y-3.55
X3.45Y-3.65
X3.45Y-3.75
X3.45Y-3.85
X4.5Y-3.2
X4.5Y-3.3
X4.5Y-3.4
X4.8Y-3.8
X4.9Y-3.8
X5.0Y-3.8
T5
X5.275Y-3.3
X5.275Y-3.5024
X5.275Y-3.7012
X5.275Y-3.9
M30
