%TF.GenerationSoftware,KiCad,Pcbnew,7.0.10*%
%TF.CreationDate,2025-08-08T15:07:21-06:00*%
%TF.ProjectId,Speedo,53706565-646f-42e6-9b69-6361645f7063,1.00*%
%TF.SameCoordinates,Original*%
%TF.FileFunction,Legend,Top*%
%TF.FilePolarity,Positive*%
%FSLAX46Y46*%
G04 Gerber Fmt 4.6, Leading zero omitted, Abs format (unit mm)*
G04 Created by KiCad (PCBNEW 7.0.10) date 2025-08-08 15:07:21*
%MOMM*%
%LPD*%
G01*
G04 APERTURE LIST*
%ADD10C,0.150000*%
%ADD11C,0.250000*%
%ADD12C,0.200000*%
%ADD13C,0.120000*%
G04 APERTURE END LIST*
D10*
X119884819Y-96881792D02*
X119408628Y-97215125D01*
X119884819Y-97453220D02*
X118884819Y-97453220D01*
X118884819Y-97453220D02*
X118884819Y-97072268D01*
X118884819Y-97072268D02*
X118932438Y-96977030D01*
X118932438Y-96977030D02*
X118980057Y-96929411D01*
X118980057Y-96929411D02*
X119075295Y-96881792D01*
X119075295Y-96881792D02*
X119218152Y-96881792D01*
X119218152Y-96881792D02*
X119313390Y-96929411D01*
X119313390Y-96929411D02*
X119361009Y-96977030D01*
X119361009Y-96977030D02*
X119408628Y-97072268D01*
X119408628Y-97072268D02*
X119408628Y-97453220D01*
X119218152Y-96024649D02*
X119884819Y-96024649D01*
X119218152Y-96453220D02*
X119741961Y-96453220D01*
X119741961Y-96453220D02*
X119837200Y-96405601D01*
X119837200Y-96405601D02*
X119884819Y-96310363D01*
X119884819Y-96310363D02*
X119884819Y-96167506D01*
X119884819Y-96167506D02*
X119837200Y-96072268D01*
X119837200Y-96072268D02*
X119789580Y-96024649D01*
X119218152Y-95548458D02*
X119884819Y-95548458D01*
X119313390Y-95548458D02*
X119265771Y-95500839D01*
X119265771Y-95500839D02*
X119218152Y-95405601D01*
X119218152Y-95405601D02*
X119218152Y-95262744D01*
X119218152Y-95262744D02*
X119265771Y-95167506D01*
X119265771Y-95167506D02*
X119361009Y-95119887D01*
X119361009Y-95119887D02*
X119884819Y-95119887D01*
X78879819Y-104882744D02*
X78879819Y-104787506D01*
X78879819Y-104787506D02*
X78927438Y-104692268D01*
X78927438Y-104692268D02*
X78975057Y-104644649D01*
X78975057Y-104644649D02*
X79070295Y-104597030D01*
X79070295Y-104597030D02*
X79260771Y-104549411D01*
X79260771Y-104549411D02*
X79498866Y-104549411D01*
X79498866Y-104549411D02*
X79689342Y-104597030D01*
X79689342Y-104597030D02*
X79784580Y-104644649D01*
X79784580Y-104644649D02*
X79832200Y-104692268D01*
X79832200Y-104692268D02*
X79879819Y-104787506D01*
X79879819Y-104787506D02*
X79879819Y-104882744D01*
X79879819Y-104882744D02*
X79832200Y-104977982D01*
X79832200Y-104977982D02*
X79784580Y-105025601D01*
X79784580Y-105025601D02*
X79689342Y-105073220D01*
X79689342Y-105073220D02*
X79498866Y-105120839D01*
X79498866Y-105120839D02*
X79260771Y-105120839D01*
X79260771Y-105120839D02*
X79070295Y-105073220D01*
X79070295Y-105073220D02*
X78975057Y-105025601D01*
X78975057Y-105025601D02*
X78927438Y-104977982D01*
X78927438Y-104977982D02*
X78879819Y-104882744D01*
X129203509Y-98707387D02*
X129251128Y-98564530D01*
X129251128Y-98564530D02*
X129298747Y-98516911D01*
X129298747Y-98516911D02*
X129393985Y-98469292D01*
X129393985Y-98469292D02*
X129536842Y-98469292D01*
X129536842Y-98469292D02*
X129632080Y-98516911D01*
X129632080Y-98516911D02*
X129679700Y-98564530D01*
X129679700Y-98564530D02*
X129727319Y-98659768D01*
X129727319Y-98659768D02*
X129727319Y-99040720D01*
X129727319Y-99040720D02*
X128727319Y-99040720D01*
X128727319Y-99040720D02*
X128727319Y-98707387D01*
X128727319Y-98707387D02*
X128774938Y-98612149D01*
X128774938Y-98612149D02*
X128822557Y-98564530D01*
X128822557Y-98564530D02*
X128917795Y-98516911D01*
X128917795Y-98516911D02*
X129013033Y-98516911D01*
X129013033Y-98516911D02*
X129108271Y-98564530D01*
X129108271Y-98564530D02*
X129155890Y-98612149D01*
X129155890Y-98612149D02*
X129203509Y-98707387D01*
X129203509Y-98707387D02*
X129203509Y-99040720D01*
X129060652Y-98135958D02*
X129727319Y-97897863D01*
X129060652Y-97659768D02*
X129727319Y-97897863D01*
X129727319Y-97897863D02*
X129965414Y-97993101D01*
X129965414Y-97993101D02*
X130013033Y-98040720D01*
X130013033Y-98040720D02*
X130060652Y-98135958D01*
X129060652Y-97278815D02*
X130060652Y-97278815D01*
X129108271Y-97278815D02*
X129060652Y-97183577D01*
X129060652Y-97183577D02*
X129060652Y-96993101D01*
X129060652Y-96993101D02*
X129108271Y-96897863D01*
X129108271Y-96897863D02*
X129155890Y-96850244D01*
X129155890Y-96850244D02*
X129251128Y-96802625D01*
X129251128Y-96802625D02*
X129536842Y-96802625D01*
X129536842Y-96802625D02*
X129632080Y-96850244D01*
X129632080Y-96850244D02*
X129679700Y-96897863D01*
X129679700Y-96897863D02*
X129727319Y-96993101D01*
X129727319Y-96993101D02*
X129727319Y-97183577D01*
X129727319Y-97183577D02*
X129679700Y-97278815D01*
X129727319Y-95945482D02*
X129203509Y-95945482D01*
X129203509Y-95945482D02*
X129108271Y-95993101D01*
X129108271Y-95993101D02*
X129060652Y-96088339D01*
X129060652Y-96088339D02*
X129060652Y-96278815D01*
X129060652Y-96278815D02*
X129108271Y-96374053D01*
X129679700Y-95945482D02*
X129727319Y-96040720D01*
X129727319Y-96040720D02*
X129727319Y-96278815D01*
X129727319Y-96278815D02*
X129679700Y-96374053D01*
X129679700Y-96374053D02*
X129584461Y-96421672D01*
X129584461Y-96421672D02*
X129489223Y-96421672D01*
X129489223Y-96421672D02*
X129393985Y-96374053D01*
X129393985Y-96374053D02*
X129346366Y-96278815D01*
X129346366Y-96278815D02*
X129346366Y-96040720D01*
X129346366Y-96040720D02*
X129298747Y-95945482D01*
X129679700Y-95516910D02*
X129727319Y-95421672D01*
X129727319Y-95421672D02*
X129727319Y-95231196D01*
X129727319Y-95231196D02*
X129679700Y-95135958D01*
X129679700Y-95135958D02*
X129584461Y-95088339D01*
X129584461Y-95088339D02*
X129536842Y-95088339D01*
X129536842Y-95088339D02*
X129441604Y-95135958D01*
X129441604Y-95135958D02*
X129393985Y-95231196D01*
X129393985Y-95231196D02*
X129393985Y-95374053D01*
X129393985Y-95374053D02*
X129346366Y-95469291D01*
X129346366Y-95469291D02*
X129251128Y-95516910D01*
X129251128Y-95516910D02*
X129203509Y-95516910D01*
X129203509Y-95516910D02*
X129108271Y-95469291D01*
X129108271Y-95469291D02*
X129060652Y-95374053D01*
X129060652Y-95374053D02*
X129060652Y-95231196D01*
X129060652Y-95231196D02*
X129108271Y-95135958D01*
X129679700Y-94707386D02*
X129727319Y-94612148D01*
X129727319Y-94612148D02*
X129727319Y-94421672D01*
X129727319Y-94421672D02*
X129679700Y-94326434D01*
X129679700Y-94326434D02*
X129584461Y-94278815D01*
X129584461Y-94278815D02*
X129536842Y-94278815D01*
X129536842Y-94278815D02*
X129441604Y-94326434D01*
X129441604Y-94326434D02*
X129393985Y-94421672D01*
X129393985Y-94421672D02*
X129393985Y-94564529D01*
X129393985Y-94564529D02*
X129346366Y-94659767D01*
X129346366Y-94659767D02*
X129251128Y-94707386D01*
X129251128Y-94707386D02*
X129203509Y-94707386D01*
X129203509Y-94707386D02*
X129108271Y-94659767D01*
X129108271Y-94659767D02*
X129060652Y-94564529D01*
X129060652Y-94564529D02*
X129060652Y-94421672D01*
X129060652Y-94421672D02*
X129108271Y-94326434D01*
X130632319Y-100120244D02*
X130632319Y-99929768D01*
X130632319Y-99929768D02*
X130679938Y-99834530D01*
X130679938Y-99834530D02*
X130775176Y-99739292D01*
X130775176Y-99739292D02*
X130965652Y-99691673D01*
X130965652Y-99691673D02*
X131298985Y-99691673D01*
X131298985Y-99691673D02*
X131489461Y-99739292D01*
X131489461Y-99739292D02*
X131584700Y-99834530D01*
X131584700Y-99834530D02*
X131632319Y-99929768D01*
X131632319Y-99929768D02*
X131632319Y-100120244D01*
X131632319Y-100120244D02*
X131584700Y-100215482D01*
X131584700Y-100215482D02*
X131489461Y-100310720D01*
X131489461Y-100310720D02*
X131298985Y-100358339D01*
X131298985Y-100358339D02*
X130965652Y-100358339D01*
X130965652Y-100358339D02*
X130775176Y-100310720D01*
X130775176Y-100310720D02*
X130679938Y-100215482D01*
X130679938Y-100215482D02*
X130632319Y-100120244D01*
X130965652Y-98834530D02*
X131632319Y-98834530D01*
X130965652Y-99263101D02*
X131489461Y-99263101D01*
X131489461Y-99263101D02*
X131584700Y-99215482D01*
X131584700Y-99215482D02*
X131632319Y-99120244D01*
X131632319Y-99120244D02*
X131632319Y-98977387D01*
X131632319Y-98977387D02*
X131584700Y-98882149D01*
X131584700Y-98882149D02*
X131537080Y-98834530D01*
X130965652Y-98501196D02*
X130965652Y-98120244D01*
X130632319Y-98358339D02*
X131489461Y-98358339D01*
X131489461Y-98358339D02*
X131584700Y-98310720D01*
X131584700Y-98310720D02*
X131632319Y-98215482D01*
X131632319Y-98215482D02*
X131632319Y-98120244D01*
D11*
X86762568Y-77244500D02*
X86941139Y-77304023D01*
X86941139Y-77304023D02*
X87238758Y-77304023D01*
X87238758Y-77304023D02*
X87357806Y-77244500D01*
X87357806Y-77244500D02*
X87417330Y-77184976D01*
X87417330Y-77184976D02*
X87476853Y-77065928D01*
X87476853Y-77065928D02*
X87476853Y-76946880D01*
X87476853Y-76946880D02*
X87417330Y-76827833D01*
X87417330Y-76827833D02*
X87357806Y-76768309D01*
X87357806Y-76768309D02*
X87238758Y-76708785D01*
X87238758Y-76708785D02*
X87000663Y-76649261D01*
X87000663Y-76649261D02*
X86881615Y-76589738D01*
X86881615Y-76589738D02*
X86822092Y-76530214D01*
X86822092Y-76530214D02*
X86762568Y-76411166D01*
X86762568Y-76411166D02*
X86762568Y-76292119D01*
X86762568Y-76292119D02*
X86822092Y-76173071D01*
X86822092Y-76173071D02*
X86881615Y-76113547D01*
X86881615Y-76113547D02*
X87000663Y-76054023D01*
X87000663Y-76054023D02*
X87298282Y-76054023D01*
X87298282Y-76054023D02*
X87476853Y-76113547D01*
X88012568Y-76470690D02*
X88012568Y-77720690D01*
X88012568Y-76530214D02*
X88131615Y-76470690D01*
X88131615Y-76470690D02*
X88369710Y-76470690D01*
X88369710Y-76470690D02*
X88488758Y-76530214D01*
X88488758Y-76530214D02*
X88548282Y-76589738D01*
X88548282Y-76589738D02*
X88607806Y-76708785D01*
X88607806Y-76708785D02*
X88607806Y-77065928D01*
X88607806Y-77065928D02*
X88548282Y-77184976D01*
X88548282Y-77184976D02*
X88488758Y-77244500D01*
X88488758Y-77244500D02*
X88369710Y-77304023D01*
X88369710Y-77304023D02*
X88131615Y-77304023D01*
X88131615Y-77304023D02*
X88012568Y-77244500D01*
X89619710Y-77244500D02*
X89500662Y-77304023D01*
X89500662Y-77304023D02*
X89262567Y-77304023D01*
X89262567Y-77304023D02*
X89143520Y-77244500D01*
X89143520Y-77244500D02*
X89083996Y-77125452D01*
X89083996Y-77125452D02*
X89083996Y-76649261D01*
X89083996Y-76649261D02*
X89143520Y-76530214D01*
X89143520Y-76530214D02*
X89262567Y-76470690D01*
X89262567Y-76470690D02*
X89500662Y-76470690D01*
X89500662Y-76470690D02*
X89619710Y-76530214D01*
X89619710Y-76530214D02*
X89679234Y-76649261D01*
X89679234Y-76649261D02*
X89679234Y-76768309D01*
X89679234Y-76768309D02*
X89083996Y-76887357D01*
X90691139Y-77244500D02*
X90572091Y-77304023D01*
X90572091Y-77304023D02*
X90333996Y-77304023D01*
X90333996Y-77304023D02*
X90214949Y-77244500D01*
X90214949Y-77244500D02*
X90155425Y-77125452D01*
X90155425Y-77125452D02*
X90155425Y-76649261D01*
X90155425Y-76649261D02*
X90214949Y-76530214D01*
X90214949Y-76530214D02*
X90333996Y-76470690D01*
X90333996Y-76470690D02*
X90572091Y-76470690D01*
X90572091Y-76470690D02*
X90691139Y-76530214D01*
X90691139Y-76530214D02*
X90750663Y-76649261D01*
X90750663Y-76649261D02*
X90750663Y-76768309D01*
X90750663Y-76768309D02*
X90155425Y-76887357D01*
X91822092Y-77304023D02*
X91822092Y-76054023D01*
X91822092Y-77244500D02*
X91703044Y-77304023D01*
X91703044Y-77304023D02*
X91464949Y-77304023D01*
X91464949Y-77304023D02*
X91345901Y-77244500D01*
X91345901Y-77244500D02*
X91286378Y-77184976D01*
X91286378Y-77184976D02*
X91226854Y-77065928D01*
X91226854Y-77065928D02*
X91226854Y-76708785D01*
X91226854Y-76708785D02*
X91286378Y-76589738D01*
X91286378Y-76589738D02*
X91345901Y-76530214D01*
X91345901Y-76530214D02*
X91464949Y-76470690D01*
X91464949Y-76470690D02*
X91703044Y-76470690D01*
X91703044Y-76470690D02*
X91822092Y-76530214D01*
X92595901Y-77304023D02*
X92476853Y-77244500D01*
X92476853Y-77244500D02*
X92417330Y-77184976D01*
X92417330Y-77184976D02*
X92357806Y-77065928D01*
X92357806Y-77065928D02*
X92357806Y-76708785D01*
X92357806Y-76708785D02*
X92417330Y-76589738D01*
X92417330Y-76589738D02*
X92476853Y-76530214D01*
X92476853Y-76530214D02*
X92595901Y-76470690D01*
X92595901Y-76470690D02*
X92774472Y-76470690D01*
X92774472Y-76470690D02*
X92893520Y-76530214D01*
X92893520Y-76530214D02*
X92953044Y-76589738D01*
X92953044Y-76589738D02*
X93012568Y-76708785D01*
X93012568Y-76708785D02*
X93012568Y-77065928D01*
X93012568Y-77065928D02*
X92953044Y-77184976D01*
X92953044Y-77184976D02*
X92893520Y-77244500D01*
X92893520Y-77244500D02*
X92774472Y-77304023D01*
X92774472Y-77304023D02*
X92595901Y-77304023D01*
X93548282Y-77304023D02*
X93548282Y-76470690D01*
X93548282Y-76589738D02*
X93607805Y-76530214D01*
X93607805Y-76530214D02*
X93726853Y-76470690D01*
X93726853Y-76470690D02*
X93905424Y-76470690D01*
X93905424Y-76470690D02*
X94024472Y-76530214D01*
X94024472Y-76530214D02*
X94083996Y-76649261D01*
X94083996Y-76649261D02*
X94083996Y-77304023D01*
X94083996Y-76649261D02*
X94143520Y-76530214D01*
X94143520Y-76530214D02*
X94262567Y-76470690D01*
X94262567Y-76470690D02*
X94441139Y-76470690D01*
X94441139Y-76470690D02*
X94560186Y-76530214D01*
X94560186Y-76530214D02*
X94619710Y-76649261D01*
X94619710Y-76649261D02*
X94619710Y-77304023D01*
X95691139Y-77244500D02*
X95572091Y-77304023D01*
X95572091Y-77304023D02*
X95333996Y-77304023D01*
X95333996Y-77304023D02*
X95214949Y-77244500D01*
X95214949Y-77244500D02*
X95155425Y-77125452D01*
X95155425Y-77125452D02*
X95155425Y-76649261D01*
X95155425Y-76649261D02*
X95214949Y-76530214D01*
X95214949Y-76530214D02*
X95333996Y-76470690D01*
X95333996Y-76470690D02*
X95572091Y-76470690D01*
X95572091Y-76470690D02*
X95691139Y-76530214D01*
X95691139Y-76530214D02*
X95750663Y-76649261D01*
X95750663Y-76649261D02*
X95750663Y-76768309D01*
X95750663Y-76768309D02*
X95155425Y-76887357D01*
X96107806Y-76470690D02*
X96583997Y-76470690D01*
X96286378Y-76054023D02*
X96286378Y-77125452D01*
X96286378Y-77125452D02*
X96345901Y-77244500D01*
X96345901Y-77244500D02*
X96464949Y-77304023D01*
X96464949Y-77304023D02*
X96583997Y-77304023D01*
X97476854Y-77244500D02*
X97357806Y-77304023D01*
X97357806Y-77304023D02*
X97119711Y-77304023D01*
X97119711Y-77304023D02*
X97000664Y-77244500D01*
X97000664Y-77244500D02*
X96941140Y-77125452D01*
X96941140Y-77125452D02*
X96941140Y-76649261D01*
X96941140Y-76649261D02*
X97000664Y-76530214D01*
X97000664Y-76530214D02*
X97119711Y-76470690D01*
X97119711Y-76470690D02*
X97357806Y-76470690D01*
X97357806Y-76470690D02*
X97476854Y-76530214D01*
X97476854Y-76530214D02*
X97536378Y-76649261D01*
X97536378Y-76649261D02*
X97536378Y-76768309D01*
X97536378Y-76768309D02*
X96941140Y-76887357D01*
X98072093Y-77304023D02*
X98072093Y-76470690D01*
X98072093Y-76708785D02*
X98131616Y-76589738D01*
X98131616Y-76589738D02*
X98191140Y-76530214D01*
X98191140Y-76530214D02*
X98310188Y-76470690D01*
X98310188Y-76470690D02*
X98429235Y-76470690D01*
X100512569Y-77184976D02*
X100453045Y-77244500D01*
X100453045Y-77244500D02*
X100274474Y-77304023D01*
X100274474Y-77304023D02*
X100155426Y-77304023D01*
X100155426Y-77304023D02*
X99976855Y-77244500D01*
X99976855Y-77244500D02*
X99857807Y-77125452D01*
X99857807Y-77125452D02*
X99798284Y-77006404D01*
X99798284Y-77006404D02*
X99738760Y-76768309D01*
X99738760Y-76768309D02*
X99738760Y-76589738D01*
X99738760Y-76589738D02*
X99798284Y-76351642D01*
X99798284Y-76351642D02*
X99857807Y-76232595D01*
X99857807Y-76232595D02*
X99976855Y-76113547D01*
X99976855Y-76113547D02*
X100155426Y-76054023D01*
X100155426Y-76054023D02*
X100274474Y-76054023D01*
X100274474Y-76054023D02*
X100453045Y-76113547D01*
X100453045Y-76113547D02*
X100512569Y-76173071D01*
X101226855Y-77304023D02*
X101107807Y-77244500D01*
X101107807Y-77244500D02*
X101048284Y-77184976D01*
X101048284Y-77184976D02*
X100988760Y-77065928D01*
X100988760Y-77065928D02*
X100988760Y-76708785D01*
X100988760Y-76708785D02*
X101048284Y-76589738D01*
X101048284Y-76589738D02*
X101107807Y-76530214D01*
X101107807Y-76530214D02*
X101226855Y-76470690D01*
X101226855Y-76470690D02*
X101405426Y-76470690D01*
X101405426Y-76470690D02*
X101524474Y-76530214D01*
X101524474Y-76530214D02*
X101583998Y-76589738D01*
X101583998Y-76589738D02*
X101643522Y-76708785D01*
X101643522Y-76708785D02*
X101643522Y-77065928D01*
X101643522Y-77065928D02*
X101583998Y-77184976D01*
X101583998Y-77184976D02*
X101524474Y-77244500D01*
X101524474Y-77244500D02*
X101405426Y-77304023D01*
X101405426Y-77304023D02*
X101226855Y-77304023D01*
X102179236Y-77304023D02*
X102179236Y-76470690D01*
X102179236Y-76708785D02*
X102238759Y-76589738D01*
X102238759Y-76589738D02*
X102298283Y-76530214D01*
X102298283Y-76530214D02*
X102417331Y-76470690D01*
X102417331Y-76470690D02*
X102536378Y-76470690D01*
X102953046Y-77304023D02*
X102953046Y-76470690D01*
X102953046Y-76708785D02*
X103012569Y-76589738D01*
X103012569Y-76589738D02*
X103072093Y-76530214D01*
X103072093Y-76530214D02*
X103191141Y-76470690D01*
X103191141Y-76470690D02*
X103310188Y-76470690D01*
X104203046Y-77244500D02*
X104083998Y-77304023D01*
X104083998Y-77304023D02*
X103845903Y-77304023D01*
X103845903Y-77304023D02*
X103726856Y-77244500D01*
X103726856Y-77244500D02*
X103667332Y-77125452D01*
X103667332Y-77125452D02*
X103667332Y-76649261D01*
X103667332Y-76649261D02*
X103726856Y-76530214D01*
X103726856Y-76530214D02*
X103845903Y-76470690D01*
X103845903Y-76470690D02*
X104083998Y-76470690D01*
X104083998Y-76470690D02*
X104203046Y-76530214D01*
X104203046Y-76530214D02*
X104262570Y-76649261D01*
X104262570Y-76649261D02*
X104262570Y-76768309D01*
X104262570Y-76768309D02*
X103667332Y-76887357D01*
X105333999Y-77244500D02*
X105214951Y-77304023D01*
X105214951Y-77304023D02*
X104976856Y-77304023D01*
X104976856Y-77304023D02*
X104857808Y-77244500D01*
X104857808Y-77244500D02*
X104798285Y-77184976D01*
X104798285Y-77184976D02*
X104738761Y-77065928D01*
X104738761Y-77065928D02*
X104738761Y-76708785D01*
X104738761Y-76708785D02*
X104798285Y-76589738D01*
X104798285Y-76589738D02*
X104857808Y-76530214D01*
X104857808Y-76530214D02*
X104976856Y-76470690D01*
X104976856Y-76470690D02*
X105214951Y-76470690D01*
X105214951Y-76470690D02*
X105333999Y-76530214D01*
X105691142Y-76470690D02*
X106167333Y-76470690D01*
X105869714Y-76054023D02*
X105869714Y-77125452D01*
X105869714Y-77125452D02*
X105929237Y-77244500D01*
X105929237Y-77244500D02*
X106048285Y-77304023D01*
X106048285Y-77304023D02*
X106167333Y-77304023D01*
X106762571Y-77304023D02*
X106643523Y-77244500D01*
X106643523Y-77244500D02*
X106584000Y-77184976D01*
X106584000Y-77184976D02*
X106524476Y-77065928D01*
X106524476Y-77065928D02*
X106524476Y-76708785D01*
X106524476Y-76708785D02*
X106584000Y-76589738D01*
X106584000Y-76589738D02*
X106643523Y-76530214D01*
X106643523Y-76530214D02*
X106762571Y-76470690D01*
X106762571Y-76470690D02*
X106941142Y-76470690D01*
X106941142Y-76470690D02*
X107060190Y-76530214D01*
X107060190Y-76530214D02*
X107119714Y-76589738D01*
X107119714Y-76589738D02*
X107179238Y-76708785D01*
X107179238Y-76708785D02*
X107179238Y-77065928D01*
X107179238Y-77065928D02*
X107119714Y-77184976D01*
X107119714Y-77184976D02*
X107060190Y-77244500D01*
X107060190Y-77244500D02*
X106941142Y-77304023D01*
X106941142Y-77304023D02*
X106762571Y-77304023D01*
X107714952Y-77304023D02*
X107714952Y-76470690D01*
X107714952Y-76708785D02*
X107774475Y-76589738D01*
X107774475Y-76589738D02*
X107833999Y-76530214D01*
X107833999Y-76530214D02*
X107953047Y-76470690D01*
X107953047Y-76470690D02*
X108072094Y-76470690D01*
X109322095Y-76470690D02*
X109619714Y-77304023D01*
X109619714Y-77304023D02*
X109917333Y-76470690D01*
X110869714Y-77244500D02*
X110750666Y-77304023D01*
X110750666Y-77304023D02*
X110512571Y-77304023D01*
X110512571Y-77304023D02*
X110393524Y-77244500D01*
X110393524Y-77244500D02*
X110334000Y-77125452D01*
X110334000Y-77125452D02*
X110334000Y-76649261D01*
X110334000Y-76649261D02*
X110393524Y-76530214D01*
X110393524Y-76530214D02*
X110512571Y-76470690D01*
X110512571Y-76470690D02*
X110750666Y-76470690D01*
X110750666Y-76470690D02*
X110869714Y-76530214D01*
X110869714Y-76530214D02*
X110929238Y-76649261D01*
X110929238Y-76649261D02*
X110929238Y-76768309D01*
X110929238Y-76768309D02*
X110334000Y-76887357D01*
X111464953Y-77304023D02*
X111464953Y-76470690D01*
X111464953Y-76708785D02*
X111524476Y-76589738D01*
X111524476Y-76589738D02*
X111584000Y-76530214D01*
X111584000Y-76530214D02*
X111703048Y-76470690D01*
X111703048Y-76470690D02*
X111822095Y-76470690D01*
X112179239Y-77244500D02*
X112298286Y-77304023D01*
X112298286Y-77304023D02*
X112536382Y-77304023D01*
X112536382Y-77304023D02*
X112655429Y-77244500D01*
X112655429Y-77244500D02*
X112714953Y-77125452D01*
X112714953Y-77125452D02*
X112714953Y-77065928D01*
X112714953Y-77065928D02*
X112655429Y-76946880D01*
X112655429Y-76946880D02*
X112536382Y-76887357D01*
X112536382Y-76887357D02*
X112357810Y-76887357D01*
X112357810Y-76887357D02*
X112238763Y-76827833D01*
X112238763Y-76827833D02*
X112179239Y-76708785D01*
X112179239Y-76708785D02*
X112179239Y-76649261D01*
X112179239Y-76649261D02*
X112238763Y-76530214D01*
X112238763Y-76530214D02*
X112357810Y-76470690D01*
X112357810Y-76470690D02*
X112536382Y-76470690D01*
X112536382Y-76470690D02*
X112655429Y-76530214D01*
X113250668Y-77304023D02*
X113250668Y-76470690D01*
X113250668Y-76054023D02*
X113191144Y-76113547D01*
X113191144Y-76113547D02*
X113250668Y-76173071D01*
X113250668Y-76173071D02*
X113310191Y-76113547D01*
X113310191Y-76113547D02*
X113250668Y-76054023D01*
X113250668Y-76054023D02*
X113250668Y-76173071D01*
X114024477Y-77304023D02*
X113905429Y-77244500D01*
X113905429Y-77244500D02*
X113845906Y-77184976D01*
X113845906Y-77184976D02*
X113786382Y-77065928D01*
X113786382Y-77065928D02*
X113786382Y-76708785D01*
X113786382Y-76708785D02*
X113845906Y-76589738D01*
X113845906Y-76589738D02*
X113905429Y-76530214D01*
X113905429Y-76530214D02*
X114024477Y-76470690D01*
X114024477Y-76470690D02*
X114203048Y-76470690D01*
X114203048Y-76470690D02*
X114322096Y-76530214D01*
X114322096Y-76530214D02*
X114381620Y-76589738D01*
X114381620Y-76589738D02*
X114441144Y-76708785D01*
X114441144Y-76708785D02*
X114441144Y-77065928D01*
X114441144Y-77065928D02*
X114381620Y-77184976D01*
X114381620Y-77184976D02*
X114322096Y-77244500D01*
X114322096Y-77244500D02*
X114203048Y-77304023D01*
X114203048Y-77304023D02*
X114024477Y-77304023D01*
X114976858Y-76470690D02*
X114976858Y-77304023D01*
X114976858Y-76589738D02*
X115036381Y-76530214D01*
X115036381Y-76530214D02*
X115155429Y-76470690D01*
X115155429Y-76470690D02*
X115334000Y-76470690D01*
X115334000Y-76470690D02*
X115453048Y-76530214D01*
X115453048Y-76530214D02*
X115512572Y-76649261D01*
X115512572Y-76649261D02*
X115512572Y-77304023D01*
X117714952Y-77304023D02*
X117000667Y-77304023D01*
X117357810Y-77304023D02*
X117357810Y-76054023D01*
X117357810Y-76054023D02*
X117238762Y-76232595D01*
X117238762Y-76232595D02*
X117119714Y-76351642D01*
X117119714Y-76351642D02*
X117000667Y-76411166D01*
X118250667Y-77184976D02*
X118310190Y-77244500D01*
X118310190Y-77244500D02*
X118250667Y-77304023D01*
X118250667Y-77304023D02*
X118191143Y-77244500D01*
X118191143Y-77244500D02*
X118250667Y-77184976D01*
X118250667Y-77184976D02*
X118250667Y-77304023D01*
X119084000Y-76054023D02*
X119203047Y-76054023D01*
X119203047Y-76054023D02*
X119322095Y-76113547D01*
X119322095Y-76113547D02*
X119381619Y-76173071D01*
X119381619Y-76173071D02*
X119441143Y-76292119D01*
X119441143Y-76292119D02*
X119500666Y-76530214D01*
X119500666Y-76530214D02*
X119500666Y-76827833D01*
X119500666Y-76827833D02*
X119441143Y-77065928D01*
X119441143Y-77065928D02*
X119381619Y-77184976D01*
X119381619Y-77184976D02*
X119322095Y-77244500D01*
X119322095Y-77244500D02*
X119203047Y-77304023D01*
X119203047Y-77304023D02*
X119084000Y-77304023D01*
X119084000Y-77304023D02*
X118964952Y-77244500D01*
X118964952Y-77244500D02*
X118905428Y-77184976D01*
X118905428Y-77184976D02*
X118845905Y-77065928D01*
X118845905Y-77065928D02*
X118786381Y-76827833D01*
X118786381Y-76827833D02*
X118786381Y-76530214D01*
X118786381Y-76530214D02*
X118845905Y-76292119D01*
X118845905Y-76292119D02*
X118905428Y-76173071D01*
X118905428Y-76173071D02*
X118964952Y-76113547D01*
X118964952Y-76113547D02*
X119084000Y-76054023D01*
X120274476Y-76054023D02*
X120393523Y-76054023D01*
X120393523Y-76054023D02*
X120512571Y-76113547D01*
X120512571Y-76113547D02*
X120572095Y-76173071D01*
X120572095Y-76173071D02*
X120631619Y-76292119D01*
X120631619Y-76292119D02*
X120691142Y-76530214D01*
X120691142Y-76530214D02*
X120691142Y-76827833D01*
X120691142Y-76827833D02*
X120631619Y-77065928D01*
X120631619Y-77065928D02*
X120572095Y-77184976D01*
X120572095Y-77184976D02*
X120512571Y-77244500D01*
X120512571Y-77244500D02*
X120393523Y-77304023D01*
X120393523Y-77304023D02*
X120274476Y-77304023D01*
X120274476Y-77304023D02*
X120155428Y-77244500D01*
X120155428Y-77244500D02*
X120095904Y-77184976D01*
X120095904Y-77184976D02*
X120036381Y-77065928D01*
X120036381Y-77065928D02*
X119976857Y-76827833D01*
X119976857Y-76827833D02*
X119976857Y-76530214D01*
X119976857Y-76530214D02*
X120036381Y-76292119D01*
X120036381Y-76292119D02*
X120095904Y-76173071D01*
X120095904Y-76173071D02*
X120155428Y-76113547D01*
X120155428Y-76113547D02*
X120274476Y-76054023D01*
D10*
X85227319Y-84804285D02*
X85227319Y-85375713D01*
X85227319Y-85089999D02*
X84227319Y-85089999D01*
X84227319Y-85089999D02*
X84370176Y-85185237D01*
X84370176Y-85185237D02*
X84465414Y-85280475D01*
X84465414Y-85280475D02*
X84513033Y-85375713D01*
X77974819Y-78346303D02*
X77974819Y-78822493D01*
X77974819Y-78822493D02*
X76974819Y-78822493D01*
X77927200Y-78060588D02*
X77974819Y-77917731D01*
X77974819Y-77917731D02*
X77974819Y-77679636D01*
X77974819Y-77679636D02*
X77927200Y-77584398D01*
X77927200Y-77584398D02*
X77879580Y-77536779D01*
X77879580Y-77536779D02*
X77784342Y-77489160D01*
X77784342Y-77489160D02*
X77689104Y-77489160D01*
X77689104Y-77489160D02*
X77593866Y-77536779D01*
X77593866Y-77536779D02*
X77546247Y-77584398D01*
X77546247Y-77584398D02*
X77498628Y-77679636D01*
X77498628Y-77679636D02*
X77451009Y-77870112D01*
X77451009Y-77870112D02*
X77403390Y-77965350D01*
X77403390Y-77965350D02*
X77355771Y-78012969D01*
X77355771Y-78012969D02*
X77260533Y-78060588D01*
X77260533Y-78060588D02*
X77165295Y-78060588D01*
X77165295Y-78060588D02*
X77070057Y-78012969D01*
X77070057Y-78012969D02*
X77022438Y-77965350D01*
X77022438Y-77965350D02*
X76974819Y-77870112D01*
X76974819Y-77870112D02*
X76974819Y-77632017D01*
X76974819Y-77632017D02*
X77022438Y-77489160D01*
X77451009Y-76727255D02*
X77498628Y-76584398D01*
X77498628Y-76584398D02*
X77546247Y-76536779D01*
X77546247Y-76536779D02*
X77641485Y-76489160D01*
X77641485Y-76489160D02*
X77784342Y-76489160D01*
X77784342Y-76489160D02*
X77879580Y-76536779D01*
X77879580Y-76536779D02*
X77927200Y-76584398D01*
X77927200Y-76584398D02*
X77974819Y-76679636D01*
X77974819Y-76679636D02*
X77974819Y-77060588D01*
X77974819Y-77060588D02*
X76974819Y-77060588D01*
X76974819Y-77060588D02*
X76974819Y-76727255D01*
X76974819Y-76727255D02*
X77022438Y-76632017D01*
X77022438Y-76632017D02*
X77070057Y-76584398D01*
X77070057Y-76584398D02*
X77165295Y-76536779D01*
X77165295Y-76536779D02*
X77260533Y-76536779D01*
X77260533Y-76536779D02*
X77355771Y-76584398D01*
X77355771Y-76584398D02*
X77403390Y-76632017D01*
X77403390Y-76632017D02*
X77451009Y-76727255D01*
X77451009Y-76727255D02*
X77451009Y-77060588D01*
X112264819Y-87293220D02*
X111264819Y-87293220D01*
X111264819Y-87293220D02*
X111264819Y-87055125D01*
X111264819Y-87055125D02*
X111312438Y-86912268D01*
X111312438Y-86912268D02*
X111407676Y-86817030D01*
X111407676Y-86817030D02*
X111502914Y-86769411D01*
X111502914Y-86769411D02*
X111693390Y-86721792D01*
X111693390Y-86721792D02*
X111836247Y-86721792D01*
X111836247Y-86721792D02*
X112026723Y-86769411D01*
X112026723Y-86769411D02*
X112121961Y-86817030D01*
X112121961Y-86817030D02*
X112217200Y-86912268D01*
X112217200Y-86912268D02*
X112264819Y-87055125D01*
X112264819Y-87055125D02*
X112264819Y-87293220D01*
X112217200Y-85912268D02*
X112264819Y-86007506D01*
X112264819Y-86007506D02*
X112264819Y-86197982D01*
X112264819Y-86197982D02*
X112217200Y-86293220D01*
X112217200Y-86293220D02*
X112121961Y-86340839D01*
X112121961Y-86340839D02*
X111741009Y-86340839D01*
X111741009Y-86340839D02*
X111645771Y-86293220D01*
X111645771Y-86293220D02*
X111598152Y-86197982D01*
X111598152Y-86197982D02*
X111598152Y-86007506D01*
X111598152Y-86007506D02*
X111645771Y-85912268D01*
X111645771Y-85912268D02*
X111741009Y-85864649D01*
X111741009Y-85864649D02*
X111836247Y-85864649D01*
X111836247Y-85864649D02*
X111931485Y-86340839D01*
X112217200Y-85007506D02*
X112264819Y-85102744D01*
X112264819Y-85102744D02*
X112264819Y-85293220D01*
X112264819Y-85293220D02*
X112217200Y-85388458D01*
X112217200Y-85388458D02*
X112169580Y-85436077D01*
X112169580Y-85436077D02*
X112074342Y-85483696D01*
X112074342Y-85483696D02*
X111788628Y-85483696D01*
X111788628Y-85483696D02*
X111693390Y-85436077D01*
X111693390Y-85436077D02*
X111645771Y-85388458D01*
X111645771Y-85388458D02*
X111598152Y-85293220D01*
X111598152Y-85293220D02*
X111598152Y-85102744D01*
X111598152Y-85102744D02*
X111645771Y-85007506D01*
X100984279Y-79244819D02*
X100984279Y-78244819D01*
X100984279Y-78244819D02*
X101365231Y-78244819D01*
X101365231Y-78244819D02*
X101460469Y-78292438D01*
X101460469Y-78292438D02*
X101508088Y-78340057D01*
X101508088Y-78340057D02*
X101555707Y-78435295D01*
X101555707Y-78435295D02*
X101555707Y-78578152D01*
X101555707Y-78578152D02*
X101508088Y-78673390D01*
X101508088Y-78673390D02*
X101460469Y-78721009D01*
X101460469Y-78721009D02*
X101365231Y-78768628D01*
X101365231Y-78768628D02*
X100984279Y-78768628D01*
X101984279Y-79244819D02*
X101984279Y-78244819D01*
X103031897Y-79149580D02*
X102984278Y-79197200D01*
X102984278Y-79197200D02*
X102841421Y-79244819D01*
X102841421Y-79244819D02*
X102746183Y-79244819D01*
X102746183Y-79244819D02*
X102603326Y-79197200D01*
X102603326Y-79197200D02*
X102508088Y-79101961D01*
X102508088Y-79101961D02*
X102460469Y-79006723D01*
X102460469Y-79006723D02*
X102412850Y-78816247D01*
X102412850Y-78816247D02*
X102412850Y-78673390D01*
X102412850Y-78673390D02*
X102460469Y-78482914D01*
X102460469Y-78482914D02*
X102508088Y-78387676D01*
X102508088Y-78387676D02*
X102603326Y-78292438D01*
X102603326Y-78292438D02*
X102746183Y-78244819D01*
X102746183Y-78244819D02*
X102841421Y-78244819D01*
X102841421Y-78244819D02*
X102984278Y-78292438D01*
X102984278Y-78292438D02*
X103031897Y-78340057D01*
X104746183Y-79244819D02*
X104174755Y-79244819D01*
X104460469Y-79244819D02*
X104460469Y-78244819D01*
X104460469Y-78244819D02*
X104365231Y-78387676D01*
X104365231Y-78387676D02*
X104269993Y-78482914D01*
X104269993Y-78482914D02*
X104174755Y-78530533D01*
X105317612Y-78673390D02*
X105222374Y-78625771D01*
X105222374Y-78625771D02*
X105174755Y-78578152D01*
X105174755Y-78578152D02*
X105127136Y-78482914D01*
X105127136Y-78482914D02*
X105127136Y-78435295D01*
X105127136Y-78435295D02*
X105174755Y-78340057D01*
X105174755Y-78340057D02*
X105222374Y-78292438D01*
X105222374Y-78292438D02*
X105317612Y-78244819D01*
X105317612Y-78244819D02*
X105508088Y-78244819D01*
X105508088Y-78244819D02*
X105603326Y-78292438D01*
X105603326Y-78292438D02*
X105650945Y-78340057D01*
X105650945Y-78340057D02*
X105698564Y-78435295D01*
X105698564Y-78435295D02*
X105698564Y-78482914D01*
X105698564Y-78482914D02*
X105650945Y-78578152D01*
X105650945Y-78578152D02*
X105603326Y-78625771D01*
X105603326Y-78625771D02*
X105508088Y-78673390D01*
X105508088Y-78673390D02*
X105317612Y-78673390D01*
X105317612Y-78673390D02*
X105222374Y-78721009D01*
X105222374Y-78721009D02*
X105174755Y-78768628D01*
X105174755Y-78768628D02*
X105127136Y-78863866D01*
X105127136Y-78863866D02*
X105127136Y-79054342D01*
X105127136Y-79054342D02*
X105174755Y-79149580D01*
X105174755Y-79149580D02*
X105222374Y-79197200D01*
X105222374Y-79197200D02*
X105317612Y-79244819D01*
X105317612Y-79244819D02*
X105508088Y-79244819D01*
X105508088Y-79244819D02*
X105603326Y-79197200D01*
X105603326Y-79197200D02*
X105650945Y-79149580D01*
X105650945Y-79149580D02*
X105698564Y-79054342D01*
X105698564Y-79054342D02*
X105698564Y-78863866D01*
X105698564Y-78863866D02*
X105650945Y-78768628D01*
X105650945Y-78768628D02*
X105603326Y-78721009D01*
X105603326Y-78721009D02*
X105508088Y-78673390D01*
X106460469Y-78721009D02*
X106127136Y-78721009D01*
X106127136Y-79244819D02*
X106127136Y-78244819D01*
X106127136Y-78244819D02*
X106603326Y-78244819D01*
X107508088Y-79244819D02*
X106936660Y-79244819D01*
X107222374Y-79244819D02*
X107222374Y-78244819D01*
X107222374Y-78244819D02*
X107127136Y-78387676D01*
X107127136Y-78387676D02*
X107031898Y-78482914D01*
X107031898Y-78482914D02*
X106936660Y-78530533D01*
X107841422Y-78244819D02*
X108460469Y-78244819D01*
X108460469Y-78244819D02*
X108127136Y-78625771D01*
X108127136Y-78625771D02*
X108269993Y-78625771D01*
X108269993Y-78625771D02*
X108365231Y-78673390D01*
X108365231Y-78673390D02*
X108412850Y-78721009D01*
X108412850Y-78721009D02*
X108460469Y-78816247D01*
X108460469Y-78816247D02*
X108460469Y-79054342D01*
X108460469Y-79054342D02*
X108412850Y-79149580D01*
X108412850Y-79149580D02*
X108365231Y-79197200D01*
X108365231Y-79197200D02*
X108269993Y-79244819D01*
X108269993Y-79244819D02*
X107984279Y-79244819D01*
X107984279Y-79244819D02*
X107889041Y-79197200D01*
X107889041Y-79197200D02*
X107841422Y-79149580D01*
X108841422Y-78340057D02*
X108889041Y-78292438D01*
X108889041Y-78292438D02*
X108984279Y-78244819D01*
X108984279Y-78244819D02*
X109222374Y-78244819D01*
X109222374Y-78244819D02*
X109317612Y-78292438D01*
X109317612Y-78292438D02*
X109365231Y-78340057D01*
X109365231Y-78340057D02*
X109412850Y-78435295D01*
X109412850Y-78435295D02*
X109412850Y-78530533D01*
X109412850Y-78530533D02*
X109365231Y-78673390D01*
X109365231Y-78673390D02*
X108793803Y-79244819D01*
X108793803Y-79244819D02*
X109412850Y-79244819D01*
X110031898Y-78244819D02*
X110127136Y-78244819D01*
X110127136Y-78244819D02*
X110222374Y-78292438D01*
X110222374Y-78292438D02*
X110269993Y-78340057D01*
X110269993Y-78340057D02*
X110317612Y-78435295D01*
X110317612Y-78435295D02*
X110365231Y-78625771D01*
X110365231Y-78625771D02*
X110365231Y-78863866D01*
X110365231Y-78863866D02*
X110317612Y-79054342D01*
X110317612Y-79054342D02*
X110269993Y-79149580D01*
X110269993Y-79149580D02*
X110222374Y-79197200D01*
X110222374Y-79197200D02*
X110127136Y-79244819D01*
X110127136Y-79244819D02*
X110031898Y-79244819D01*
X110031898Y-79244819D02*
X109936660Y-79197200D01*
X109936660Y-79197200D02*
X109889041Y-79149580D01*
X109889041Y-79149580D02*
X109841422Y-79054342D01*
X109841422Y-79054342D02*
X109793803Y-78863866D01*
X109793803Y-78863866D02*
X109793803Y-78625771D01*
X109793803Y-78625771D02*
X109841422Y-78435295D01*
X109841422Y-78435295D02*
X109889041Y-78340057D01*
X109889041Y-78340057D02*
X109936660Y-78292438D01*
X109936660Y-78292438D02*
X110031898Y-78244819D01*
X130679938Y-89626911D02*
X130632319Y-89722149D01*
X130632319Y-89722149D02*
X130632319Y-89865006D01*
X130632319Y-89865006D02*
X130679938Y-90007863D01*
X130679938Y-90007863D02*
X130775176Y-90103101D01*
X130775176Y-90103101D02*
X130870414Y-90150720D01*
X130870414Y-90150720D02*
X131060890Y-90198339D01*
X131060890Y-90198339D02*
X131203747Y-90198339D01*
X131203747Y-90198339D02*
X131394223Y-90150720D01*
X131394223Y-90150720D02*
X131489461Y-90103101D01*
X131489461Y-90103101D02*
X131584700Y-90007863D01*
X131584700Y-90007863D02*
X131632319Y-89865006D01*
X131632319Y-89865006D02*
X131632319Y-89769768D01*
X131632319Y-89769768D02*
X131584700Y-89626911D01*
X131584700Y-89626911D02*
X131537080Y-89579292D01*
X131537080Y-89579292D02*
X131203747Y-89579292D01*
X131203747Y-89579292D02*
X131203747Y-89769768D01*
X131632319Y-89150720D02*
X130632319Y-89150720D01*
X130632319Y-89150720D02*
X131632319Y-88579292D01*
X131632319Y-88579292D02*
X130632319Y-88579292D01*
X131632319Y-88103101D02*
X130632319Y-88103101D01*
X130632319Y-88103101D02*
X130632319Y-87865006D01*
X130632319Y-87865006D02*
X130679938Y-87722149D01*
X130679938Y-87722149D02*
X130775176Y-87626911D01*
X130775176Y-87626911D02*
X130870414Y-87579292D01*
X130870414Y-87579292D02*
X131060890Y-87531673D01*
X131060890Y-87531673D02*
X131203747Y-87531673D01*
X131203747Y-87531673D02*
X131394223Y-87579292D01*
X131394223Y-87579292D02*
X131489461Y-87626911D01*
X131489461Y-87626911D02*
X131584700Y-87722149D01*
X131584700Y-87722149D02*
X131632319Y-87865006D01*
X131632319Y-87865006D02*
X131632319Y-88103101D01*
X131632319Y-94278220D02*
X130632319Y-94278220D01*
X130965652Y-93802030D02*
X131632319Y-93802030D01*
X131060890Y-93802030D02*
X131013271Y-93754411D01*
X131013271Y-93754411D02*
X130965652Y-93659173D01*
X130965652Y-93659173D02*
X130965652Y-93516316D01*
X130965652Y-93516316D02*
X131013271Y-93421078D01*
X131013271Y-93421078D02*
X131108509Y-93373459D01*
X131108509Y-93373459D02*
X131632319Y-93373459D01*
X112264819Y-82213220D02*
X111264819Y-82213220D01*
X111598152Y-81737030D02*
X112264819Y-81737030D01*
X111693390Y-81737030D02*
X111645771Y-81689411D01*
X111645771Y-81689411D02*
X111598152Y-81594173D01*
X111598152Y-81594173D02*
X111598152Y-81451316D01*
X111598152Y-81451316D02*
X111645771Y-81356078D01*
X111645771Y-81356078D02*
X111741009Y-81308459D01*
X111741009Y-81308459D02*
X112264819Y-81308459D01*
X112217200Y-80403697D02*
X112264819Y-80498935D01*
X112264819Y-80498935D02*
X112264819Y-80689411D01*
X112264819Y-80689411D02*
X112217200Y-80784649D01*
X112217200Y-80784649D02*
X112169580Y-80832268D01*
X112169580Y-80832268D02*
X112074342Y-80879887D01*
X112074342Y-80879887D02*
X111788628Y-80879887D01*
X111788628Y-80879887D02*
X111693390Y-80832268D01*
X111693390Y-80832268D02*
X111645771Y-80784649D01*
X111645771Y-80784649D02*
X111598152Y-80689411D01*
X111598152Y-80689411D02*
X111598152Y-80498935D01*
X111598152Y-80498935D02*
X111645771Y-80403697D01*
D12*
X84860387Y-105947361D02*
X84860387Y-104797361D01*
X84860387Y-104797361D02*
X85134197Y-104797361D01*
X85134197Y-104797361D02*
X85298482Y-104852123D01*
X85298482Y-104852123D02*
X85408006Y-104961647D01*
X85408006Y-104961647D02*
X85462768Y-105071171D01*
X85462768Y-105071171D02*
X85517530Y-105290219D01*
X85517530Y-105290219D02*
X85517530Y-105454504D01*
X85517530Y-105454504D02*
X85462768Y-105673552D01*
X85462768Y-105673552D02*
X85408006Y-105783076D01*
X85408006Y-105783076D02*
X85298482Y-105892600D01*
X85298482Y-105892600D02*
X85134197Y-105947361D01*
X85134197Y-105947361D02*
X84860387Y-105947361D01*
X86448482Y-105892600D02*
X86338958Y-105947361D01*
X86338958Y-105947361D02*
X86119911Y-105947361D01*
X86119911Y-105947361D02*
X86010387Y-105892600D01*
X86010387Y-105892600D02*
X85955625Y-105783076D01*
X85955625Y-105783076D02*
X85955625Y-105344980D01*
X85955625Y-105344980D02*
X86010387Y-105235457D01*
X86010387Y-105235457D02*
X86119911Y-105180695D01*
X86119911Y-105180695D02*
X86338958Y-105180695D01*
X86338958Y-105180695D02*
X86448482Y-105235457D01*
X86448482Y-105235457D02*
X86503244Y-105344980D01*
X86503244Y-105344980D02*
X86503244Y-105454504D01*
X86503244Y-105454504D02*
X85955625Y-105564028D01*
X86941339Y-105892600D02*
X87050863Y-105947361D01*
X87050863Y-105947361D02*
X87269911Y-105947361D01*
X87269911Y-105947361D02*
X87379434Y-105892600D01*
X87379434Y-105892600D02*
X87434196Y-105783076D01*
X87434196Y-105783076D02*
X87434196Y-105728314D01*
X87434196Y-105728314D02*
X87379434Y-105618790D01*
X87379434Y-105618790D02*
X87269911Y-105564028D01*
X87269911Y-105564028D02*
X87105625Y-105564028D01*
X87105625Y-105564028D02*
X86996101Y-105509266D01*
X86996101Y-105509266D02*
X86941339Y-105399742D01*
X86941339Y-105399742D02*
X86941339Y-105344980D01*
X86941339Y-105344980D02*
X86996101Y-105235457D01*
X86996101Y-105235457D02*
X87105625Y-105180695D01*
X87105625Y-105180695D02*
X87269911Y-105180695D01*
X87269911Y-105180695D02*
X87379434Y-105235457D01*
X87927053Y-105947361D02*
X87927053Y-105180695D01*
X87927053Y-104797361D02*
X87872291Y-104852123D01*
X87872291Y-104852123D02*
X87927053Y-104906885D01*
X87927053Y-104906885D02*
X87981815Y-104852123D01*
X87981815Y-104852123D02*
X87927053Y-104797361D01*
X87927053Y-104797361D02*
X87927053Y-104906885D01*
X88967529Y-105180695D02*
X88967529Y-106111647D01*
X88967529Y-106111647D02*
X88912767Y-106221171D01*
X88912767Y-106221171D02*
X88858005Y-106275933D01*
X88858005Y-106275933D02*
X88748482Y-106330695D01*
X88748482Y-106330695D02*
X88584196Y-106330695D01*
X88584196Y-106330695D02*
X88474672Y-106275933D01*
X88967529Y-105892600D02*
X88858005Y-105947361D01*
X88858005Y-105947361D02*
X88638958Y-105947361D01*
X88638958Y-105947361D02*
X88529434Y-105892600D01*
X88529434Y-105892600D02*
X88474672Y-105837838D01*
X88474672Y-105837838D02*
X88419910Y-105728314D01*
X88419910Y-105728314D02*
X88419910Y-105399742D01*
X88419910Y-105399742D02*
X88474672Y-105290219D01*
X88474672Y-105290219D02*
X88529434Y-105235457D01*
X88529434Y-105235457D02*
X88638958Y-105180695D01*
X88638958Y-105180695D02*
X88858005Y-105180695D01*
X88858005Y-105180695D02*
X88967529Y-105235457D01*
X89515148Y-105180695D02*
X89515148Y-105947361D01*
X89515148Y-105290219D02*
X89569910Y-105235457D01*
X89569910Y-105235457D02*
X89679434Y-105180695D01*
X89679434Y-105180695D02*
X89843719Y-105180695D01*
X89843719Y-105180695D02*
X89953243Y-105235457D01*
X89953243Y-105235457D02*
X90008005Y-105344980D01*
X90008005Y-105344980D02*
X90008005Y-105947361D01*
X90993719Y-105892600D02*
X90884195Y-105947361D01*
X90884195Y-105947361D02*
X90665148Y-105947361D01*
X90665148Y-105947361D02*
X90555624Y-105892600D01*
X90555624Y-105892600D02*
X90500862Y-105783076D01*
X90500862Y-105783076D02*
X90500862Y-105344980D01*
X90500862Y-105344980D02*
X90555624Y-105235457D01*
X90555624Y-105235457D02*
X90665148Y-105180695D01*
X90665148Y-105180695D02*
X90884195Y-105180695D01*
X90884195Y-105180695D02*
X90993719Y-105235457D01*
X90993719Y-105235457D02*
X91048481Y-105344980D01*
X91048481Y-105344980D02*
X91048481Y-105454504D01*
X91048481Y-105454504D02*
X90500862Y-105564028D01*
X92034195Y-105947361D02*
X92034195Y-104797361D01*
X92034195Y-105892600D02*
X91924671Y-105947361D01*
X91924671Y-105947361D02*
X91705624Y-105947361D01*
X91705624Y-105947361D02*
X91596100Y-105892600D01*
X91596100Y-105892600D02*
X91541338Y-105837838D01*
X91541338Y-105837838D02*
X91486576Y-105728314D01*
X91486576Y-105728314D02*
X91486576Y-105399742D01*
X91486576Y-105399742D02*
X91541338Y-105290219D01*
X91541338Y-105290219D02*
X91596100Y-105235457D01*
X91596100Y-105235457D02*
X91705624Y-105180695D01*
X91705624Y-105180695D02*
X91924671Y-105180695D01*
X91924671Y-105180695D02*
X92034195Y-105235457D01*
X93458004Y-105947361D02*
X93458004Y-104797361D01*
X93458004Y-105235457D02*
X93567528Y-105180695D01*
X93567528Y-105180695D02*
X93786575Y-105180695D01*
X93786575Y-105180695D02*
X93896099Y-105235457D01*
X93896099Y-105235457D02*
X93950861Y-105290219D01*
X93950861Y-105290219D02*
X94005623Y-105399742D01*
X94005623Y-105399742D02*
X94005623Y-105728314D01*
X94005623Y-105728314D02*
X93950861Y-105837838D01*
X93950861Y-105837838D02*
X93896099Y-105892600D01*
X93896099Y-105892600D02*
X93786575Y-105947361D01*
X93786575Y-105947361D02*
X93567528Y-105947361D01*
X93567528Y-105947361D02*
X93458004Y-105892600D01*
X94388956Y-105180695D02*
X94662766Y-105947361D01*
X94936575Y-105180695D02*
X94662766Y-105947361D01*
X94662766Y-105947361D02*
X94553242Y-106221171D01*
X94553242Y-106221171D02*
X94498480Y-106275933D01*
X94498480Y-106275933D02*
X94388956Y-106330695D01*
X85079435Y-106648861D02*
X85298482Y-106648861D01*
X85298482Y-106648861D02*
X85408006Y-106703623D01*
X85408006Y-106703623D02*
X85517530Y-106813147D01*
X85517530Y-106813147D02*
X85572292Y-107032195D01*
X85572292Y-107032195D02*
X85572292Y-107415528D01*
X85572292Y-107415528D02*
X85517530Y-107634576D01*
X85517530Y-107634576D02*
X85408006Y-107744100D01*
X85408006Y-107744100D02*
X85298482Y-107798861D01*
X85298482Y-107798861D02*
X85079435Y-107798861D01*
X85079435Y-107798861D02*
X84969911Y-107744100D01*
X84969911Y-107744100D02*
X84860387Y-107634576D01*
X84860387Y-107634576D02*
X84805625Y-107415528D01*
X84805625Y-107415528D02*
X84805625Y-107032195D01*
X84805625Y-107032195D02*
X84860387Y-106813147D01*
X84860387Y-106813147D02*
X84969911Y-106703623D01*
X84969911Y-106703623D02*
X85079435Y-106648861D01*
X86229435Y-107798861D02*
X86119911Y-107744100D01*
X86119911Y-107744100D02*
X86065149Y-107634576D01*
X86065149Y-107634576D02*
X86065149Y-106648861D01*
X87160387Y-107798861D02*
X87160387Y-106648861D01*
X87160387Y-107744100D02*
X87050863Y-107798861D01*
X87050863Y-107798861D02*
X86831816Y-107798861D01*
X86831816Y-107798861D02*
X86722292Y-107744100D01*
X86722292Y-107744100D02*
X86667530Y-107689338D01*
X86667530Y-107689338D02*
X86612768Y-107579814D01*
X86612768Y-107579814D02*
X86612768Y-107251242D01*
X86612768Y-107251242D02*
X86667530Y-107141719D01*
X86667530Y-107141719D02*
X86722292Y-107086957D01*
X86722292Y-107086957D02*
X86831816Y-107032195D01*
X86831816Y-107032195D02*
X87050863Y-107032195D01*
X87050863Y-107032195D02*
X87160387Y-107086957D01*
X88091339Y-107196480D02*
X88255625Y-107251242D01*
X88255625Y-107251242D02*
X88310387Y-107306004D01*
X88310387Y-107306004D02*
X88365149Y-107415528D01*
X88365149Y-107415528D02*
X88365149Y-107579814D01*
X88365149Y-107579814D02*
X88310387Y-107689338D01*
X88310387Y-107689338D02*
X88255625Y-107744100D01*
X88255625Y-107744100D02*
X88146101Y-107798861D01*
X88146101Y-107798861D02*
X87708006Y-107798861D01*
X87708006Y-107798861D02*
X87708006Y-106648861D01*
X87708006Y-106648861D02*
X88091339Y-106648861D01*
X88091339Y-106648861D02*
X88200863Y-106703623D01*
X88200863Y-106703623D02*
X88255625Y-106758385D01*
X88255625Y-106758385D02*
X88310387Y-106867909D01*
X88310387Y-106867909D02*
X88310387Y-106977433D01*
X88310387Y-106977433D02*
X88255625Y-107086957D01*
X88255625Y-107086957D02*
X88200863Y-107141719D01*
X88200863Y-107141719D02*
X88091339Y-107196480D01*
X88091339Y-107196480D02*
X87708006Y-107196480D01*
X89350863Y-107032195D02*
X89350863Y-107798861D01*
X88858006Y-107032195D02*
X88858006Y-107634576D01*
X88858006Y-107634576D02*
X88912768Y-107744100D01*
X88912768Y-107744100D02*
X89022292Y-107798861D01*
X89022292Y-107798861D02*
X89186577Y-107798861D01*
X89186577Y-107798861D02*
X89296101Y-107744100D01*
X89296101Y-107744100D02*
X89350863Y-107689338D01*
X89788958Y-107032195D02*
X90391339Y-107032195D01*
X90391339Y-107032195D02*
X89788958Y-107798861D01*
X89788958Y-107798861D02*
X90391339Y-107798861D01*
X90719910Y-107032195D02*
X91322291Y-107032195D01*
X91322291Y-107032195D02*
X90719910Y-107798861D01*
X90719910Y-107798861D02*
X91322291Y-107798861D01*
X92253243Y-107798861D02*
X92253243Y-107196480D01*
X92253243Y-107196480D02*
X92198481Y-107086957D01*
X92198481Y-107086957D02*
X92088957Y-107032195D01*
X92088957Y-107032195D02*
X91869910Y-107032195D01*
X91869910Y-107032195D02*
X91760386Y-107086957D01*
X92253243Y-107744100D02*
X92143719Y-107798861D01*
X92143719Y-107798861D02*
X91869910Y-107798861D01*
X91869910Y-107798861D02*
X91760386Y-107744100D01*
X91760386Y-107744100D02*
X91705624Y-107634576D01*
X91705624Y-107634576D02*
X91705624Y-107525052D01*
X91705624Y-107525052D02*
X91760386Y-107415528D01*
X91760386Y-107415528D02*
X91869910Y-107360766D01*
X91869910Y-107360766D02*
X92143719Y-107360766D01*
X92143719Y-107360766D02*
X92253243Y-107306004D01*
X92800862Y-107798861D02*
X92800862Y-107032195D01*
X92800862Y-107251242D02*
X92855624Y-107141719D01*
X92855624Y-107141719D02*
X92910386Y-107086957D01*
X92910386Y-107086957D02*
X93019910Y-107032195D01*
X93019910Y-107032195D02*
X93129433Y-107032195D01*
X94005624Y-107798861D02*
X94005624Y-106648861D01*
X94005624Y-107744100D02*
X93896100Y-107798861D01*
X93896100Y-107798861D02*
X93677053Y-107798861D01*
X93677053Y-107798861D02*
X93567529Y-107744100D01*
X93567529Y-107744100D02*
X93512767Y-107689338D01*
X93512767Y-107689338D02*
X93458005Y-107579814D01*
X93458005Y-107579814D02*
X93458005Y-107251242D01*
X93458005Y-107251242D02*
X93512767Y-107141719D01*
X93512767Y-107141719D02*
X93567529Y-107086957D01*
X93567529Y-107086957D02*
X93677053Y-107032195D01*
X93677053Y-107032195D02*
X93896100Y-107032195D01*
X93896100Y-107032195D02*
X94005624Y-107086957D01*
D10*
X76069819Y-104549411D02*
X76069819Y-105120839D01*
X76069819Y-104835125D02*
X75069819Y-104835125D01*
X75069819Y-104835125D02*
X75212676Y-104930363D01*
X75212676Y-104930363D02*
X75307914Y-105025601D01*
X75307914Y-105025601D02*
X75355533Y-105120839D01*
X85277319Y-92690720D02*
X84277319Y-92690720D01*
X85182080Y-91643102D02*
X85229700Y-91690721D01*
X85229700Y-91690721D02*
X85277319Y-91833578D01*
X85277319Y-91833578D02*
X85277319Y-91928816D01*
X85277319Y-91928816D02*
X85229700Y-92071673D01*
X85229700Y-92071673D02*
X85134461Y-92166911D01*
X85134461Y-92166911D02*
X85039223Y-92214530D01*
X85039223Y-92214530D02*
X84848747Y-92262149D01*
X84848747Y-92262149D02*
X84705890Y-92262149D01*
X84705890Y-92262149D02*
X84515414Y-92214530D01*
X84515414Y-92214530D02*
X84420176Y-92166911D01*
X84420176Y-92166911D02*
X84324938Y-92071673D01*
X84324938Y-92071673D02*
X84277319Y-91928816D01*
X84277319Y-91928816D02*
X84277319Y-91833578D01*
X84277319Y-91833578D02*
X84324938Y-91690721D01*
X84324938Y-91690721D02*
X84372557Y-91643102D01*
X85229700Y-91262149D02*
X85277319Y-91119292D01*
X85277319Y-91119292D02*
X85277319Y-90881197D01*
X85277319Y-90881197D02*
X85229700Y-90785959D01*
X85229700Y-90785959D02*
X85182080Y-90738340D01*
X85182080Y-90738340D02*
X85086842Y-90690721D01*
X85086842Y-90690721D02*
X84991604Y-90690721D01*
X84991604Y-90690721D02*
X84896366Y-90738340D01*
X84896366Y-90738340D02*
X84848747Y-90785959D01*
X84848747Y-90785959D02*
X84801128Y-90881197D01*
X84801128Y-90881197D02*
X84753509Y-91071673D01*
X84753509Y-91071673D02*
X84705890Y-91166911D01*
X84705890Y-91166911D02*
X84658271Y-91214530D01*
X84658271Y-91214530D02*
X84563033Y-91262149D01*
X84563033Y-91262149D02*
X84467795Y-91262149D01*
X84467795Y-91262149D02*
X84372557Y-91214530D01*
X84372557Y-91214530D02*
X84324938Y-91166911D01*
X84324938Y-91166911D02*
X84277319Y-91071673D01*
X84277319Y-91071673D02*
X84277319Y-90833578D01*
X84277319Y-90833578D02*
X84324938Y-90690721D01*
X85277319Y-90262149D02*
X84277319Y-90262149D01*
X84277319Y-90262149D02*
X84277319Y-89881197D01*
X84277319Y-89881197D02*
X84324938Y-89785959D01*
X84324938Y-89785959D02*
X84372557Y-89738340D01*
X84372557Y-89738340D02*
X84467795Y-89690721D01*
X84467795Y-89690721D02*
X84610652Y-89690721D01*
X84610652Y-89690721D02*
X84705890Y-89738340D01*
X84705890Y-89738340D02*
X84753509Y-89785959D01*
X84753509Y-89785959D02*
X84801128Y-89881197D01*
X84801128Y-89881197D02*
X84801128Y-90262149D01*
X131251366Y-85070720D02*
X131251366Y-84308816D01*
X131632319Y-84689768D02*
X130870414Y-84689768D01*
X130632319Y-83356435D02*
X130632319Y-83832625D01*
X130632319Y-83832625D02*
X131108509Y-83880244D01*
X131108509Y-83880244D02*
X131060890Y-83832625D01*
X131060890Y-83832625D02*
X131013271Y-83737387D01*
X131013271Y-83737387D02*
X131013271Y-83499292D01*
X131013271Y-83499292D02*
X131060890Y-83404054D01*
X131060890Y-83404054D02*
X131108509Y-83356435D01*
X131108509Y-83356435D02*
X131203747Y-83308816D01*
X131203747Y-83308816D02*
X131441842Y-83308816D01*
X131441842Y-83308816D02*
X131537080Y-83356435D01*
X131537080Y-83356435D02*
X131584700Y-83404054D01*
X131584700Y-83404054D02*
X131632319Y-83499292D01*
X131632319Y-83499292D02*
X131632319Y-83737387D01*
X131632319Y-83737387D02*
X131584700Y-83832625D01*
X131584700Y-83832625D02*
X131537080Y-83880244D01*
X130632319Y-83023101D02*
X131632319Y-82689768D01*
X131632319Y-82689768D02*
X130632319Y-82356435D01*
X77974819Y-106660720D02*
X76974819Y-106660720D01*
X76974819Y-106660720D02*
X77689104Y-106327387D01*
X77689104Y-106327387D02*
X76974819Y-105994054D01*
X76974819Y-105994054D02*
X77974819Y-105994054D01*
X77927200Y-105565482D02*
X77974819Y-105422625D01*
X77974819Y-105422625D02*
X77974819Y-105184530D01*
X77974819Y-105184530D02*
X77927200Y-105089292D01*
X77927200Y-105089292D02*
X77879580Y-105041673D01*
X77879580Y-105041673D02*
X77784342Y-104994054D01*
X77784342Y-104994054D02*
X77689104Y-104994054D01*
X77689104Y-104994054D02*
X77593866Y-105041673D01*
X77593866Y-105041673D02*
X77546247Y-105089292D01*
X77546247Y-105089292D02*
X77498628Y-105184530D01*
X77498628Y-105184530D02*
X77451009Y-105375006D01*
X77451009Y-105375006D02*
X77403390Y-105470244D01*
X77403390Y-105470244D02*
X77355771Y-105517863D01*
X77355771Y-105517863D02*
X77260533Y-105565482D01*
X77260533Y-105565482D02*
X77165295Y-105565482D01*
X77165295Y-105565482D02*
X77070057Y-105517863D01*
X77070057Y-105517863D02*
X77022438Y-105470244D01*
X77022438Y-105470244D02*
X76974819Y-105375006D01*
X76974819Y-105375006D02*
X76974819Y-105136911D01*
X76974819Y-105136911D02*
X77022438Y-104994054D01*
X77451009Y-104232149D02*
X77498628Y-104089292D01*
X77498628Y-104089292D02*
X77546247Y-104041673D01*
X77546247Y-104041673D02*
X77641485Y-103994054D01*
X77641485Y-103994054D02*
X77784342Y-103994054D01*
X77784342Y-103994054D02*
X77879580Y-104041673D01*
X77879580Y-104041673D02*
X77927200Y-104089292D01*
X77927200Y-104089292D02*
X77974819Y-104184530D01*
X77974819Y-104184530D02*
X77974819Y-104565482D01*
X77974819Y-104565482D02*
X76974819Y-104565482D01*
X76974819Y-104565482D02*
X76974819Y-104232149D01*
X76974819Y-104232149D02*
X77022438Y-104136911D01*
X77022438Y-104136911D02*
X77070057Y-104089292D01*
X77070057Y-104089292D02*
X77165295Y-104041673D01*
X77165295Y-104041673D02*
X77260533Y-104041673D01*
X77260533Y-104041673D02*
X77355771Y-104089292D01*
X77355771Y-104089292D02*
X77403390Y-104136911D01*
X77403390Y-104136911D02*
X77451009Y-104232149D01*
X77451009Y-104232149D02*
X77451009Y-104565482D01*
X91259819Y-98591666D02*
X90783628Y-98924999D01*
X91259819Y-99163094D02*
X90259819Y-99163094D01*
X90259819Y-99163094D02*
X90259819Y-98782142D01*
X90259819Y-98782142D02*
X90307438Y-98686904D01*
X90307438Y-98686904D02*
X90355057Y-98639285D01*
X90355057Y-98639285D02*
X90450295Y-98591666D01*
X90450295Y-98591666D02*
X90593152Y-98591666D01*
X90593152Y-98591666D02*
X90688390Y-98639285D01*
X90688390Y-98639285D02*
X90736009Y-98686904D01*
X90736009Y-98686904D02*
X90783628Y-98782142D01*
X90783628Y-98782142D02*
X90783628Y-99163094D01*
X90259819Y-97686904D02*
X90259819Y-98163094D01*
X90259819Y-98163094D02*
X90736009Y-98210713D01*
X90736009Y-98210713D02*
X90688390Y-98163094D01*
X90688390Y-98163094D02*
X90640771Y-98067856D01*
X90640771Y-98067856D02*
X90640771Y-97829761D01*
X90640771Y-97829761D02*
X90688390Y-97734523D01*
X90688390Y-97734523D02*
X90736009Y-97686904D01*
X90736009Y-97686904D02*
X90831247Y-97639285D01*
X90831247Y-97639285D02*
X91069342Y-97639285D01*
X91069342Y-97639285D02*
X91164580Y-97686904D01*
X91164580Y-97686904D02*
X91212200Y-97734523D01*
X91212200Y-97734523D02*
X91259819Y-97829761D01*
X91259819Y-97829761D02*
X91259819Y-98067856D01*
X91259819Y-98067856D02*
X91212200Y-98163094D01*
X91212200Y-98163094D02*
X91164580Y-98210713D01*
X120483333Y-79734580D02*
X120435714Y-79782200D01*
X120435714Y-79782200D02*
X120292857Y-79829819D01*
X120292857Y-79829819D02*
X120197619Y-79829819D01*
X120197619Y-79829819D02*
X120054762Y-79782200D01*
X120054762Y-79782200D02*
X119959524Y-79686961D01*
X119959524Y-79686961D02*
X119911905Y-79591723D01*
X119911905Y-79591723D02*
X119864286Y-79401247D01*
X119864286Y-79401247D02*
X119864286Y-79258390D01*
X119864286Y-79258390D02*
X119911905Y-79067914D01*
X119911905Y-79067914D02*
X119959524Y-78972676D01*
X119959524Y-78972676D02*
X120054762Y-78877438D01*
X120054762Y-78877438D02*
X120197619Y-78829819D01*
X120197619Y-78829819D02*
X120292857Y-78829819D01*
X120292857Y-78829819D02*
X120435714Y-78877438D01*
X120435714Y-78877438D02*
X120483333Y-78925057D01*
X120816667Y-78829819D02*
X121435714Y-78829819D01*
X121435714Y-78829819D02*
X121102381Y-79210771D01*
X121102381Y-79210771D02*
X121245238Y-79210771D01*
X121245238Y-79210771D02*
X121340476Y-79258390D01*
X121340476Y-79258390D02*
X121388095Y-79306009D01*
X121388095Y-79306009D02*
X121435714Y-79401247D01*
X121435714Y-79401247D02*
X121435714Y-79639342D01*
X121435714Y-79639342D02*
X121388095Y-79734580D01*
X121388095Y-79734580D02*
X121340476Y-79782200D01*
X121340476Y-79782200D02*
X121245238Y-79829819D01*
X121245238Y-79829819D02*
X120959524Y-79829819D01*
X120959524Y-79829819D02*
X120864286Y-79782200D01*
X120864286Y-79782200D02*
X120816667Y-79734580D01*
X86106190Y-100784819D02*
X86106190Y-99784819D01*
X86106190Y-100261009D02*
X86677618Y-100261009D01*
X86677618Y-100784819D02*
X86677618Y-99784819D01*
X87582380Y-100784819D02*
X87582380Y-99784819D01*
X87582380Y-100737200D02*
X87487142Y-100784819D01*
X87487142Y-100784819D02*
X87296666Y-100784819D01*
X87296666Y-100784819D02*
X87201428Y-100737200D01*
X87201428Y-100737200D02*
X87153809Y-100689580D01*
X87153809Y-100689580D02*
X87106190Y-100594342D01*
X87106190Y-100594342D02*
X87106190Y-100308628D01*
X87106190Y-100308628D02*
X87153809Y-100213390D01*
X87153809Y-100213390D02*
X87201428Y-100165771D01*
X87201428Y-100165771D02*
X87296666Y-100118152D01*
X87296666Y-100118152D02*
X87487142Y-100118152D01*
X87487142Y-100118152D02*
X87582380Y-100165771D01*
X88058571Y-100784819D02*
X88058571Y-100118152D01*
X88058571Y-100308628D02*
X88106190Y-100213390D01*
X88106190Y-100213390D02*
X88153809Y-100165771D01*
X88153809Y-100165771D02*
X88249047Y-100118152D01*
X88249047Y-100118152D02*
X88344285Y-100118152D01*
X89201428Y-100784819D02*
X88630000Y-100784819D01*
X88915714Y-100784819D02*
X88915714Y-99784819D01*
X88915714Y-99784819D02*
X88820476Y-99927676D01*
X88820476Y-99927676D02*
X88725238Y-100022914D01*
X88725238Y-100022914D02*
X88630000Y-100070533D01*
X121644580Y-89066666D02*
X121692200Y-89114285D01*
X121692200Y-89114285D02*
X121739819Y-89257142D01*
X121739819Y-89257142D02*
X121739819Y-89352380D01*
X121739819Y-89352380D02*
X121692200Y-89495237D01*
X121692200Y-89495237D02*
X121596961Y-89590475D01*
X121596961Y-89590475D02*
X121501723Y-89638094D01*
X121501723Y-89638094D02*
X121311247Y-89685713D01*
X121311247Y-89685713D02*
X121168390Y-89685713D01*
X121168390Y-89685713D02*
X120977914Y-89638094D01*
X120977914Y-89638094D02*
X120882676Y-89590475D01*
X120882676Y-89590475D02*
X120787438Y-89495237D01*
X120787438Y-89495237D02*
X120739819Y-89352380D01*
X120739819Y-89352380D02*
X120739819Y-89257142D01*
X120739819Y-89257142D02*
X120787438Y-89114285D01*
X120787438Y-89114285D02*
X120835057Y-89066666D01*
X121739819Y-88114285D02*
X121739819Y-88685713D01*
X121739819Y-88399999D02*
X120739819Y-88399999D01*
X120739819Y-88399999D02*
X120882676Y-88495237D01*
X120882676Y-88495237D02*
X120977914Y-88590475D01*
X120977914Y-88590475D02*
X121025533Y-88685713D01*
X112214819Y-93511666D02*
X111738628Y-93844999D01*
X112214819Y-94083094D02*
X111214819Y-94083094D01*
X111214819Y-94083094D02*
X111214819Y-93702142D01*
X111214819Y-93702142D02*
X111262438Y-93606904D01*
X111262438Y-93606904D02*
X111310057Y-93559285D01*
X111310057Y-93559285D02*
X111405295Y-93511666D01*
X111405295Y-93511666D02*
X111548152Y-93511666D01*
X111548152Y-93511666D02*
X111643390Y-93559285D01*
X111643390Y-93559285D02*
X111691009Y-93606904D01*
X111691009Y-93606904D02*
X111738628Y-93702142D01*
X111738628Y-93702142D02*
X111738628Y-94083094D01*
X112214819Y-92559285D02*
X112214819Y-93130713D01*
X112214819Y-92844999D02*
X111214819Y-92844999D01*
X111214819Y-92844999D02*
X111357676Y-92940237D01*
X111357676Y-92940237D02*
X111452914Y-93035475D01*
X111452914Y-93035475D02*
X111500533Y-93130713D01*
X105243333Y-107819580D02*
X105195714Y-107867200D01*
X105195714Y-107867200D02*
X105052857Y-107914819D01*
X105052857Y-107914819D02*
X104957619Y-107914819D01*
X104957619Y-107914819D02*
X104814762Y-107867200D01*
X104814762Y-107867200D02*
X104719524Y-107771961D01*
X104719524Y-107771961D02*
X104671905Y-107676723D01*
X104671905Y-107676723D02*
X104624286Y-107486247D01*
X104624286Y-107486247D02*
X104624286Y-107343390D01*
X104624286Y-107343390D02*
X104671905Y-107152914D01*
X104671905Y-107152914D02*
X104719524Y-107057676D01*
X104719524Y-107057676D02*
X104814762Y-106962438D01*
X104814762Y-106962438D02*
X104957619Y-106914819D01*
X104957619Y-106914819D02*
X105052857Y-106914819D01*
X105052857Y-106914819D02*
X105195714Y-106962438D01*
X105195714Y-106962438D02*
X105243333Y-107010057D01*
X105624286Y-107010057D02*
X105671905Y-106962438D01*
X105671905Y-106962438D02*
X105767143Y-106914819D01*
X105767143Y-106914819D02*
X106005238Y-106914819D01*
X106005238Y-106914819D02*
X106100476Y-106962438D01*
X106100476Y-106962438D02*
X106148095Y-107010057D01*
X106148095Y-107010057D02*
X106195714Y-107105295D01*
X106195714Y-107105295D02*
X106195714Y-107200533D01*
X106195714Y-107200533D02*
X106148095Y-107343390D01*
X106148095Y-107343390D02*
X105576667Y-107914819D01*
X105576667Y-107914819D02*
X106195714Y-107914819D01*
X91259819Y-82716666D02*
X90783628Y-83049999D01*
X91259819Y-83288094D02*
X90259819Y-83288094D01*
X90259819Y-83288094D02*
X90259819Y-82907142D01*
X90259819Y-82907142D02*
X90307438Y-82811904D01*
X90307438Y-82811904D02*
X90355057Y-82764285D01*
X90355057Y-82764285D02*
X90450295Y-82716666D01*
X90450295Y-82716666D02*
X90593152Y-82716666D01*
X90593152Y-82716666D02*
X90688390Y-82764285D01*
X90688390Y-82764285D02*
X90736009Y-82811904D01*
X90736009Y-82811904D02*
X90783628Y-82907142D01*
X90783628Y-82907142D02*
X90783628Y-83288094D01*
X90259819Y-82383332D02*
X90259819Y-81764285D01*
X90259819Y-81764285D02*
X90640771Y-82097618D01*
X90640771Y-82097618D02*
X90640771Y-81954761D01*
X90640771Y-81954761D02*
X90688390Y-81859523D01*
X90688390Y-81859523D02*
X90736009Y-81811904D01*
X90736009Y-81811904D02*
X90831247Y-81764285D01*
X90831247Y-81764285D02*
X91069342Y-81764285D01*
X91069342Y-81764285D02*
X91164580Y-81811904D01*
X91164580Y-81811904D02*
X91212200Y-81859523D01*
X91212200Y-81859523D02*
X91259819Y-81954761D01*
X91259819Y-81954761D02*
X91259819Y-82240475D01*
X91259819Y-82240475D02*
X91212200Y-82335713D01*
X91212200Y-82335713D02*
X91164580Y-82383332D01*
X112214819Y-96686666D02*
X111738628Y-97019999D01*
X112214819Y-97258094D02*
X111214819Y-97258094D01*
X111214819Y-97258094D02*
X111214819Y-96877142D01*
X111214819Y-96877142D02*
X111262438Y-96781904D01*
X111262438Y-96781904D02*
X111310057Y-96734285D01*
X111310057Y-96734285D02*
X111405295Y-96686666D01*
X111405295Y-96686666D02*
X111548152Y-96686666D01*
X111548152Y-96686666D02*
X111643390Y-96734285D01*
X111643390Y-96734285D02*
X111691009Y-96781904D01*
X111691009Y-96781904D02*
X111738628Y-96877142D01*
X111738628Y-96877142D02*
X111738628Y-97258094D01*
X112214819Y-96210475D02*
X112214819Y-96019999D01*
X112214819Y-96019999D02*
X112167200Y-95924761D01*
X112167200Y-95924761D02*
X112119580Y-95877142D01*
X112119580Y-95877142D02*
X111976723Y-95781904D01*
X111976723Y-95781904D02*
X111786247Y-95734285D01*
X111786247Y-95734285D02*
X111405295Y-95734285D01*
X111405295Y-95734285D02*
X111310057Y-95781904D01*
X111310057Y-95781904D02*
X111262438Y-95829523D01*
X111262438Y-95829523D02*
X111214819Y-95924761D01*
X111214819Y-95924761D02*
X111214819Y-96115237D01*
X111214819Y-96115237D02*
X111262438Y-96210475D01*
X111262438Y-96210475D02*
X111310057Y-96258094D01*
X111310057Y-96258094D02*
X111405295Y-96305713D01*
X111405295Y-96305713D02*
X111643390Y-96305713D01*
X111643390Y-96305713D02*
X111738628Y-96258094D01*
X111738628Y-96258094D02*
X111786247Y-96210475D01*
X111786247Y-96210475D02*
X111833866Y-96115237D01*
X111833866Y-96115237D02*
X111833866Y-95924761D01*
X111833866Y-95924761D02*
X111786247Y-95829523D01*
X111786247Y-95829523D02*
X111738628Y-95781904D01*
X111738628Y-95781904D02*
X111643390Y-95734285D01*
X123644819Y-93352857D02*
X123168628Y-93686190D01*
X123644819Y-93924285D02*
X122644819Y-93924285D01*
X122644819Y-93924285D02*
X122644819Y-93543333D01*
X122644819Y-93543333D02*
X122692438Y-93448095D01*
X122692438Y-93448095D02*
X122740057Y-93400476D01*
X122740057Y-93400476D02*
X122835295Y-93352857D01*
X122835295Y-93352857D02*
X122978152Y-93352857D01*
X122978152Y-93352857D02*
X123073390Y-93400476D01*
X123073390Y-93400476D02*
X123121009Y-93448095D01*
X123121009Y-93448095D02*
X123168628Y-93543333D01*
X123168628Y-93543333D02*
X123168628Y-93924285D01*
X123644819Y-92400476D02*
X123644819Y-92971904D01*
X123644819Y-92686190D02*
X122644819Y-92686190D01*
X122644819Y-92686190D02*
X122787676Y-92781428D01*
X122787676Y-92781428D02*
X122882914Y-92876666D01*
X122882914Y-92876666D02*
X122930533Y-92971904D01*
X122644819Y-92067142D02*
X122644819Y-91448095D01*
X122644819Y-91448095D02*
X123025771Y-91781428D01*
X123025771Y-91781428D02*
X123025771Y-91638571D01*
X123025771Y-91638571D02*
X123073390Y-91543333D01*
X123073390Y-91543333D02*
X123121009Y-91495714D01*
X123121009Y-91495714D02*
X123216247Y-91448095D01*
X123216247Y-91448095D02*
X123454342Y-91448095D01*
X123454342Y-91448095D02*
X123549580Y-91495714D01*
X123549580Y-91495714D02*
X123597200Y-91543333D01*
X123597200Y-91543333D02*
X123644819Y-91638571D01*
X123644819Y-91638571D02*
X123644819Y-91924285D01*
X123644819Y-91924285D02*
X123597200Y-92019523D01*
X123597200Y-92019523D02*
X123549580Y-92067142D01*
X91259819Y-92241666D02*
X90783628Y-92574999D01*
X91259819Y-92813094D02*
X90259819Y-92813094D01*
X90259819Y-92813094D02*
X90259819Y-92432142D01*
X90259819Y-92432142D02*
X90307438Y-92336904D01*
X90307438Y-92336904D02*
X90355057Y-92289285D01*
X90355057Y-92289285D02*
X90450295Y-92241666D01*
X90450295Y-92241666D02*
X90593152Y-92241666D01*
X90593152Y-92241666D02*
X90688390Y-92289285D01*
X90688390Y-92289285D02*
X90736009Y-92336904D01*
X90736009Y-92336904D02*
X90783628Y-92432142D01*
X90783628Y-92432142D02*
X90783628Y-92813094D01*
X90593152Y-91384523D02*
X91259819Y-91384523D01*
X90212200Y-91622618D02*
X90926485Y-91860713D01*
X90926485Y-91860713D02*
X90926485Y-91241666D01*
X91259819Y-95416666D02*
X90783628Y-95749999D01*
X91259819Y-95988094D02*
X90259819Y-95988094D01*
X90259819Y-95988094D02*
X90259819Y-95607142D01*
X90259819Y-95607142D02*
X90307438Y-95511904D01*
X90307438Y-95511904D02*
X90355057Y-95464285D01*
X90355057Y-95464285D02*
X90450295Y-95416666D01*
X90450295Y-95416666D02*
X90593152Y-95416666D01*
X90593152Y-95416666D02*
X90688390Y-95464285D01*
X90688390Y-95464285D02*
X90736009Y-95511904D01*
X90736009Y-95511904D02*
X90783628Y-95607142D01*
X90783628Y-95607142D02*
X90783628Y-95988094D01*
X90259819Y-94559523D02*
X90259819Y-94749999D01*
X90259819Y-94749999D02*
X90307438Y-94845237D01*
X90307438Y-94845237D02*
X90355057Y-94892856D01*
X90355057Y-94892856D02*
X90497914Y-94988094D01*
X90497914Y-94988094D02*
X90688390Y-95035713D01*
X90688390Y-95035713D02*
X91069342Y-95035713D01*
X91069342Y-95035713D02*
X91164580Y-94988094D01*
X91164580Y-94988094D02*
X91212200Y-94940475D01*
X91212200Y-94940475D02*
X91259819Y-94845237D01*
X91259819Y-94845237D02*
X91259819Y-94654761D01*
X91259819Y-94654761D02*
X91212200Y-94559523D01*
X91212200Y-94559523D02*
X91164580Y-94511904D01*
X91164580Y-94511904D02*
X91069342Y-94464285D01*
X91069342Y-94464285D02*
X90831247Y-94464285D01*
X90831247Y-94464285D02*
X90736009Y-94511904D01*
X90736009Y-94511904D02*
X90688390Y-94559523D01*
X90688390Y-94559523D02*
X90640771Y-94654761D01*
X90640771Y-94654761D02*
X90640771Y-94845237D01*
X90640771Y-94845237D02*
X90688390Y-94940475D01*
X90688390Y-94940475D02*
X90736009Y-94988094D01*
X90736009Y-94988094D02*
X90831247Y-95035713D01*
X91259819Y-89066666D02*
X90783628Y-89399999D01*
X91259819Y-89638094D02*
X90259819Y-89638094D01*
X90259819Y-89638094D02*
X90259819Y-89257142D01*
X90259819Y-89257142D02*
X90307438Y-89161904D01*
X90307438Y-89161904D02*
X90355057Y-89114285D01*
X90355057Y-89114285D02*
X90450295Y-89066666D01*
X90450295Y-89066666D02*
X90593152Y-89066666D01*
X90593152Y-89066666D02*
X90688390Y-89114285D01*
X90688390Y-89114285D02*
X90736009Y-89161904D01*
X90736009Y-89161904D02*
X90783628Y-89257142D01*
X90783628Y-89257142D02*
X90783628Y-89638094D01*
X90259819Y-88733332D02*
X90259819Y-88066666D01*
X90259819Y-88066666D02*
X91259819Y-88495237D01*
X112214819Y-100337857D02*
X111738628Y-100671190D01*
X112214819Y-100909285D02*
X111214819Y-100909285D01*
X111214819Y-100909285D02*
X111214819Y-100528333D01*
X111214819Y-100528333D02*
X111262438Y-100433095D01*
X111262438Y-100433095D02*
X111310057Y-100385476D01*
X111310057Y-100385476D02*
X111405295Y-100337857D01*
X111405295Y-100337857D02*
X111548152Y-100337857D01*
X111548152Y-100337857D02*
X111643390Y-100385476D01*
X111643390Y-100385476D02*
X111691009Y-100433095D01*
X111691009Y-100433095D02*
X111738628Y-100528333D01*
X111738628Y-100528333D02*
X111738628Y-100909285D01*
X112214819Y-99385476D02*
X112214819Y-99956904D01*
X112214819Y-99671190D02*
X111214819Y-99671190D01*
X111214819Y-99671190D02*
X111357676Y-99766428D01*
X111357676Y-99766428D02*
X111452914Y-99861666D01*
X111452914Y-99861666D02*
X111500533Y-99956904D01*
X111214819Y-98766428D02*
X111214819Y-98671190D01*
X111214819Y-98671190D02*
X111262438Y-98575952D01*
X111262438Y-98575952D02*
X111310057Y-98528333D01*
X111310057Y-98528333D02*
X111405295Y-98480714D01*
X111405295Y-98480714D02*
X111595771Y-98433095D01*
X111595771Y-98433095D02*
X111833866Y-98433095D01*
X111833866Y-98433095D02*
X112024342Y-98480714D01*
X112024342Y-98480714D02*
X112119580Y-98528333D01*
X112119580Y-98528333D02*
X112167200Y-98575952D01*
X112167200Y-98575952D02*
X112214819Y-98671190D01*
X112214819Y-98671190D02*
X112214819Y-98766428D01*
X112214819Y-98766428D02*
X112167200Y-98861666D01*
X112167200Y-98861666D02*
X112119580Y-98909285D01*
X112119580Y-98909285D02*
X112024342Y-98956904D01*
X112024342Y-98956904D02*
X111833866Y-99004523D01*
X111833866Y-99004523D02*
X111595771Y-99004523D01*
X111595771Y-99004523D02*
X111405295Y-98956904D01*
X111405295Y-98956904D02*
X111310057Y-98909285D01*
X111310057Y-98909285D02*
X111262438Y-98861666D01*
X111262438Y-98861666D02*
X111214819Y-98766428D01*
X126357142Y-81734819D02*
X126023809Y-81258628D01*
X125785714Y-81734819D02*
X125785714Y-80734819D01*
X125785714Y-80734819D02*
X126166666Y-80734819D01*
X126166666Y-80734819D02*
X126261904Y-80782438D01*
X126261904Y-80782438D02*
X126309523Y-80830057D01*
X126309523Y-80830057D02*
X126357142Y-80925295D01*
X126357142Y-80925295D02*
X126357142Y-81068152D01*
X126357142Y-81068152D02*
X126309523Y-81163390D01*
X126309523Y-81163390D02*
X126261904Y-81211009D01*
X126261904Y-81211009D02*
X126166666Y-81258628D01*
X126166666Y-81258628D02*
X125785714Y-81258628D01*
X127309523Y-81734819D02*
X126738095Y-81734819D01*
X127023809Y-81734819D02*
X127023809Y-80734819D01*
X127023809Y-80734819D02*
X126928571Y-80877676D01*
X126928571Y-80877676D02*
X126833333Y-80972914D01*
X126833333Y-80972914D02*
X126738095Y-81020533D01*
X128261904Y-81734819D02*
X127690476Y-81734819D01*
X127976190Y-81734819D02*
X127976190Y-80734819D01*
X127976190Y-80734819D02*
X127880952Y-80877676D01*
X127880952Y-80877676D02*
X127785714Y-80972914D01*
X127785714Y-80972914D02*
X127690476Y-81020533D01*
X112214819Y-90336666D02*
X111738628Y-90669999D01*
X112214819Y-90908094D02*
X111214819Y-90908094D01*
X111214819Y-90908094D02*
X111214819Y-90527142D01*
X111214819Y-90527142D02*
X111262438Y-90431904D01*
X111262438Y-90431904D02*
X111310057Y-90384285D01*
X111310057Y-90384285D02*
X111405295Y-90336666D01*
X111405295Y-90336666D02*
X111548152Y-90336666D01*
X111548152Y-90336666D02*
X111643390Y-90384285D01*
X111643390Y-90384285D02*
X111691009Y-90431904D01*
X111691009Y-90431904D02*
X111738628Y-90527142D01*
X111738628Y-90527142D02*
X111738628Y-90908094D01*
X111310057Y-89955713D02*
X111262438Y-89908094D01*
X111262438Y-89908094D02*
X111214819Y-89812856D01*
X111214819Y-89812856D02*
X111214819Y-89574761D01*
X111214819Y-89574761D02*
X111262438Y-89479523D01*
X111262438Y-89479523D02*
X111310057Y-89431904D01*
X111310057Y-89431904D02*
X111405295Y-89384285D01*
X111405295Y-89384285D02*
X111500533Y-89384285D01*
X111500533Y-89384285D02*
X111643390Y-89431904D01*
X111643390Y-89431904D02*
X112214819Y-90003332D01*
X112214819Y-90003332D02*
X112214819Y-89384285D01*
X91259819Y-85891666D02*
X90783628Y-86224999D01*
X91259819Y-86463094D02*
X90259819Y-86463094D01*
X90259819Y-86463094D02*
X90259819Y-86082142D01*
X90259819Y-86082142D02*
X90307438Y-85986904D01*
X90307438Y-85986904D02*
X90355057Y-85939285D01*
X90355057Y-85939285D02*
X90450295Y-85891666D01*
X90450295Y-85891666D02*
X90593152Y-85891666D01*
X90593152Y-85891666D02*
X90688390Y-85939285D01*
X90688390Y-85939285D02*
X90736009Y-85986904D01*
X90736009Y-85986904D02*
X90783628Y-86082142D01*
X90783628Y-86082142D02*
X90783628Y-86463094D01*
X90688390Y-85320237D02*
X90640771Y-85415475D01*
X90640771Y-85415475D02*
X90593152Y-85463094D01*
X90593152Y-85463094D02*
X90497914Y-85510713D01*
X90497914Y-85510713D02*
X90450295Y-85510713D01*
X90450295Y-85510713D02*
X90355057Y-85463094D01*
X90355057Y-85463094D02*
X90307438Y-85415475D01*
X90307438Y-85415475D02*
X90259819Y-85320237D01*
X90259819Y-85320237D02*
X90259819Y-85129761D01*
X90259819Y-85129761D02*
X90307438Y-85034523D01*
X90307438Y-85034523D02*
X90355057Y-84986904D01*
X90355057Y-84986904D02*
X90450295Y-84939285D01*
X90450295Y-84939285D02*
X90497914Y-84939285D01*
X90497914Y-84939285D02*
X90593152Y-84986904D01*
X90593152Y-84986904D02*
X90640771Y-85034523D01*
X90640771Y-85034523D02*
X90688390Y-85129761D01*
X90688390Y-85129761D02*
X90688390Y-85320237D01*
X90688390Y-85320237D02*
X90736009Y-85415475D01*
X90736009Y-85415475D02*
X90783628Y-85463094D01*
X90783628Y-85463094D02*
X90878866Y-85510713D01*
X90878866Y-85510713D02*
X91069342Y-85510713D01*
X91069342Y-85510713D02*
X91164580Y-85463094D01*
X91164580Y-85463094D02*
X91212200Y-85415475D01*
X91212200Y-85415475D02*
X91259819Y-85320237D01*
X91259819Y-85320237D02*
X91259819Y-85129761D01*
X91259819Y-85129761D02*
X91212200Y-85034523D01*
X91212200Y-85034523D02*
X91164580Y-84986904D01*
X91164580Y-84986904D02*
X91069342Y-84939285D01*
X91069342Y-84939285D02*
X90878866Y-84939285D01*
X90878866Y-84939285D02*
X90783628Y-84986904D01*
X90783628Y-84986904D02*
X90736009Y-85034523D01*
X90736009Y-85034523D02*
X90688390Y-85129761D01*
X121912142Y-108234819D02*
X121578809Y-107758628D01*
X121340714Y-108234819D02*
X121340714Y-107234819D01*
X121340714Y-107234819D02*
X121721666Y-107234819D01*
X121721666Y-107234819D02*
X121816904Y-107282438D01*
X121816904Y-107282438D02*
X121864523Y-107330057D01*
X121864523Y-107330057D02*
X121912142Y-107425295D01*
X121912142Y-107425295D02*
X121912142Y-107568152D01*
X121912142Y-107568152D02*
X121864523Y-107663390D01*
X121864523Y-107663390D02*
X121816904Y-107711009D01*
X121816904Y-107711009D02*
X121721666Y-107758628D01*
X121721666Y-107758628D02*
X121340714Y-107758628D01*
X122864523Y-108234819D02*
X122293095Y-108234819D01*
X122578809Y-108234819D02*
X122578809Y-107234819D01*
X122578809Y-107234819D02*
X122483571Y-107377676D01*
X122483571Y-107377676D02*
X122388333Y-107472914D01*
X122388333Y-107472914D02*
X122293095Y-107520533D01*
X123245476Y-107330057D02*
X123293095Y-107282438D01*
X123293095Y-107282438D02*
X123388333Y-107234819D01*
X123388333Y-107234819D02*
X123626428Y-107234819D01*
X123626428Y-107234819D02*
X123721666Y-107282438D01*
X123721666Y-107282438D02*
X123769285Y-107330057D01*
X123769285Y-107330057D02*
X123816904Y-107425295D01*
X123816904Y-107425295D02*
X123816904Y-107520533D01*
X123816904Y-107520533D02*
X123769285Y-107663390D01*
X123769285Y-107663390D02*
X123197857Y-108234819D01*
X123197857Y-108234819D02*
X123816904Y-108234819D01*
X126904761Y-102150057D02*
X126809523Y-102102438D01*
X126809523Y-102102438D02*
X126714285Y-102007200D01*
X126714285Y-102007200D02*
X126571428Y-101864342D01*
X126571428Y-101864342D02*
X126476190Y-101816723D01*
X126476190Y-101816723D02*
X126380952Y-101816723D01*
X126428571Y-102054819D02*
X126333333Y-102007200D01*
X126333333Y-102007200D02*
X126238095Y-101911961D01*
X126238095Y-101911961D02*
X126190476Y-101721485D01*
X126190476Y-101721485D02*
X126190476Y-101388152D01*
X126190476Y-101388152D02*
X126238095Y-101197676D01*
X126238095Y-101197676D02*
X126333333Y-101102438D01*
X126333333Y-101102438D02*
X126428571Y-101054819D01*
X126428571Y-101054819D02*
X126619047Y-101054819D01*
X126619047Y-101054819D02*
X126714285Y-101102438D01*
X126714285Y-101102438D02*
X126809523Y-101197676D01*
X126809523Y-101197676D02*
X126857142Y-101388152D01*
X126857142Y-101388152D02*
X126857142Y-101721485D01*
X126857142Y-101721485D02*
X126809523Y-101911961D01*
X126809523Y-101911961D02*
X126714285Y-102007200D01*
X126714285Y-102007200D02*
X126619047Y-102054819D01*
X126619047Y-102054819D02*
X126428571Y-102054819D01*
X127809523Y-102054819D02*
X127238095Y-102054819D01*
X127523809Y-102054819D02*
X127523809Y-101054819D01*
X127523809Y-101054819D02*
X127428571Y-101197676D01*
X127428571Y-101197676D02*
X127333333Y-101292914D01*
X127333333Y-101292914D02*
X127238095Y-101340533D01*
D13*
%TO.C,R5*%
X94715000Y-98425000D02*
X94785000Y-98425000D01*
X94715000Y-98425000D02*
G75*
G03*
X91975000Y-98425000I-1370000J0D01*
G01*
X91975000Y-98425000D02*
G75*
G03*
X94715000Y-98425000I1370000J0D01*
G01*
%TO.C,Hdr3*%
X112970000Y-79950000D02*
X114300000Y-79950000D01*
X112970000Y-81280000D02*
X112970000Y-79950000D01*
X112970000Y-82550000D02*
X112970000Y-87690000D01*
X112970000Y-82550000D02*
X115630000Y-82550000D01*
X112970000Y-87690000D02*
X115630000Y-87690000D01*
X115630000Y-82550000D02*
X115630000Y-87690000D01*
%TO.C,C3*%
X122489000Y-80339759D02*
X122489000Y-80969759D01*
X122804000Y-80654759D02*
X122174000Y-80654759D01*
X123880000Y-83840000D02*
X117420000Y-83840000D01*
X123880000Y-83880000D02*
X117420000Y-83880000D01*
X123880000Y-83920000D02*
X117420000Y-83920000D01*
X123878000Y-83960000D02*
X117422000Y-83960000D01*
X123877000Y-84000000D02*
X117423000Y-84000000D01*
X123874000Y-84040000D02*
X117426000Y-84040000D01*
X123872000Y-84080000D02*
X121690000Y-84080000D01*
X119610000Y-84080000D02*
X117428000Y-84080000D01*
X123868000Y-84120000D02*
X121690000Y-84120000D01*
X119610000Y-84120000D02*
X117432000Y-84120000D01*
X123865000Y-84160000D02*
X121690000Y-84160000D01*
X119610000Y-84160000D02*
X117435000Y-84160000D01*
X123861000Y-84200000D02*
X121690000Y-84200000D01*
X119610000Y-84200000D02*
X117439000Y-84200000D01*
X123856000Y-84240000D02*
X121690000Y-84240000D01*
X119610000Y-84240000D02*
X117444000Y-84240000D01*
X123851000Y-84280000D02*
X121690000Y-84280000D01*
X119610000Y-84280000D02*
X117449000Y-84280000D01*
X123845000Y-84320000D02*
X121690000Y-84320000D01*
X119610000Y-84320000D02*
X117455000Y-84320000D01*
X123839000Y-84360000D02*
X121690000Y-84360000D01*
X119610000Y-84360000D02*
X117461000Y-84360000D01*
X123832000Y-84400000D02*
X121690000Y-84400000D01*
X119610000Y-84400000D02*
X117468000Y-84400000D01*
X123825000Y-84440000D02*
X121690000Y-84440000D01*
X119610000Y-84440000D02*
X117475000Y-84440000D01*
X123817000Y-84480000D02*
X121690000Y-84480000D01*
X119610000Y-84480000D02*
X117483000Y-84480000D01*
X123809000Y-84520000D02*
X121690000Y-84520000D01*
X119610000Y-84520000D02*
X117491000Y-84520000D01*
X123800000Y-84561000D02*
X121690000Y-84561000D01*
X119610000Y-84561000D02*
X117500000Y-84561000D01*
X123791000Y-84601000D02*
X121690000Y-84601000D01*
X119610000Y-84601000D02*
X117509000Y-84601000D01*
X123781000Y-84641000D02*
X121690000Y-84641000D01*
X119610000Y-84641000D02*
X117519000Y-84641000D01*
X123771000Y-84681000D02*
X121690000Y-84681000D01*
X119610000Y-84681000D02*
X117529000Y-84681000D01*
X123760000Y-84721000D02*
X121690000Y-84721000D01*
X119610000Y-84721000D02*
X117540000Y-84721000D01*
X123748000Y-84761000D02*
X121690000Y-84761000D01*
X119610000Y-84761000D02*
X117552000Y-84761000D01*
X123736000Y-84801000D02*
X121690000Y-84801000D01*
X119610000Y-84801000D02*
X117564000Y-84801000D01*
X123724000Y-84841000D02*
X121690000Y-84841000D01*
X119610000Y-84841000D02*
X117576000Y-84841000D01*
X123711000Y-84881000D02*
X121690000Y-84881000D01*
X119610000Y-84881000D02*
X117589000Y-84881000D01*
X123697000Y-84921000D02*
X121690000Y-84921000D01*
X119610000Y-84921000D02*
X117603000Y-84921000D01*
X123683000Y-84961000D02*
X121690000Y-84961000D01*
X119610000Y-84961000D02*
X117617000Y-84961000D01*
X123668000Y-85001000D02*
X121690000Y-85001000D01*
X119610000Y-85001000D02*
X117632000Y-85001000D01*
X123652000Y-85041000D02*
X121690000Y-85041000D01*
X119610000Y-85041000D02*
X117648000Y-85041000D01*
X123636000Y-85081000D02*
X121690000Y-85081000D01*
X119610000Y-85081000D02*
X117664000Y-85081000D01*
X123620000Y-85121000D02*
X121690000Y-85121000D01*
X119610000Y-85121000D02*
X117680000Y-85121000D01*
X123602000Y-85161000D02*
X121690000Y-85161000D01*
X119610000Y-85161000D02*
X117698000Y-85161000D01*
X123584000Y-85201000D02*
X121690000Y-85201000D01*
X119610000Y-85201000D02*
X117716000Y-85201000D01*
X123566000Y-85241000D02*
X121690000Y-85241000D01*
X119610000Y-85241000D02*
X117734000Y-85241000D01*
X123546000Y-85281000D02*
X121690000Y-85281000D01*
X119610000Y-85281000D02*
X117754000Y-85281000D01*
X123526000Y-85321000D02*
X121690000Y-85321000D01*
X119610000Y-85321000D02*
X117774000Y-85321000D01*
X123506000Y-85361000D02*
X121690000Y-85361000D01*
X119610000Y-85361000D02*
X117794000Y-85361000D01*
X123484000Y-85401000D02*
X121690000Y-85401000D01*
X119610000Y-85401000D02*
X117816000Y-85401000D01*
X123462000Y-85441000D02*
X121690000Y-85441000D01*
X119610000Y-85441000D02*
X117838000Y-85441000D01*
X123440000Y-85481000D02*
X121690000Y-85481000D01*
X119610000Y-85481000D02*
X117860000Y-85481000D01*
X123416000Y-85521000D02*
X121690000Y-85521000D01*
X119610000Y-85521000D02*
X117884000Y-85521000D01*
X123392000Y-85561000D02*
X121690000Y-85561000D01*
X119610000Y-85561000D02*
X117908000Y-85561000D01*
X123366000Y-85601000D02*
X121690000Y-85601000D01*
X119610000Y-85601000D02*
X117934000Y-85601000D01*
X123340000Y-85641000D02*
X121690000Y-85641000D01*
X119610000Y-85641000D02*
X117960000Y-85641000D01*
X123314000Y-85681000D02*
X121690000Y-85681000D01*
X119610000Y-85681000D02*
X117986000Y-85681000D01*
X123286000Y-85721000D02*
X121690000Y-85721000D01*
X119610000Y-85721000D02*
X118014000Y-85721000D01*
X123257000Y-85761000D02*
X121690000Y-85761000D01*
X119610000Y-85761000D02*
X118043000Y-85761000D01*
X123228000Y-85801000D02*
X121690000Y-85801000D01*
X119610000Y-85801000D02*
X118072000Y-85801000D01*
X123198000Y-85841000D02*
X121690000Y-85841000D01*
X119610000Y-85841000D02*
X118102000Y-85841000D01*
X123166000Y-85881000D02*
X121690000Y-85881000D01*
X119610000Y-85881000D02*
X118134000Y-85881000D01*
X123134000Y-85921000D02*
X121690000Y-85921000D01*
X119610000Y-85921000D02*
X118166000Y-85921000D01*
X123100000Y-85961000D02*
X121690000Y-85961000D01*
X119610000Y-85961000D02*
X118200000Y-85961000D01*
X123066000Y-86001000D02*
X121690000Y-86001000D01*
X119610000Y-86001000D02*
X118234000Y-86001000D01*
X123030000Y-86041000D02*
X121690000Y-86041000D01*
X119610000Y-86041000D02*
X118270000Y-86041000D01*
X122993000Y-86081000D02*
X121690000Y-86081000D01*
X119610000Y-86081000D02*
X118307000Y-86081000D01*
X122955000Y-86121000D02*
X121690000Y-86121000D01*
X119610000Y-86121000D02*
X118345000Y-86121000D01*
X122915000Y-86161000D02*
X118385000Y-86161000D01*
X122874000Y-86201000D02*
X118426000Y-86201000D01*
X122832000Y-86241000D02*
X118468000Y-86241000D01*
X122787000Y-86281000D02*
X118513000Y-86281000D01*
X122742000Y-86321000D02*
X118558000Y-86321000D01*
X122694000Y-86361000D02*
X118606000Y-86361000D01*
X122645000Y-86401000D02*
X118655000Y-86401000D01*
X122594000Y-86441000D02*
X118706000Y-86441000D01*
X122540000Y-86481000D02*
X118760000Y-86481000D01*
X122484000Y-86521000D02*
X118816000Y-86521000D01*
X122426000Y-86561000D02*
X118874000Y-86561000D01*
X122364000Y-86601000D02*
X118936000Y-86601000D01*
X122300000Y-86641000D02*
X119000000Y-86641000D01*
X122231000Y-86681000D02*
X119069000Y-86681000D01*
X122159000Y-86721000D02*
X119141000Y-86721000D01*
X122082000Y-86761000D02*
X119218000Y-86761000D01*
X122000000Y-86801000D02*
X119300000Y-86801000D01*
X121912000Y-86841000D02*
X119388000Y-86841000D01*
X121815000Y-86881000D02*
X119485000Y-86881000D01*
X121709000Y-86921000D02*
X119591000Y-86921000D01*
X121590000Y-86961000D02*
X119710000Y-86961000D01*
X121452000Y-87001000D02*
X119848000Y-87001000D01*
X121283000Y-87041000D02*
X120017000Y-87041000D01*
X121052000Y-87081000D02*
X120248000Y-87081000D01*
X123920000Y-83840000D02*
G75*
G03*
X117380000Y-83840000I-3270000J0D01*
G01*
X117380000Y-83840000D02*
G75*
G03*
X123920000Y-83840000I3270000J0D01*
G01*
%TO.C,Hdr1*%
X86300000Y-83760000D02*
X87630000Y-83760000D01*
X86300000Y-85090000D02*
X86300000Y-83760000D01*
X86300000Y-86360000D02*
X86300000Y-99120000D01*
X86300000Y-86360000D02*
X88960000Y-86360000D01*
X86300000Y-99120000D02*
X88960000Y-99120000D01*
X88960000Y-86360000D02*
X88960000Y-99120000D01*
%TO.C,C1*%
X122650000Y-87530000D02*
X122650000Y-87975000D01*
X122650000Y-87530000D02*
X128890000Y-87530000D01*
X122650000Y-89825000D02*
X122650000Y-90270000D01*
X122650000Y-90270000D02*
X128890000Y-90270000D01*
X128890000Y-87530000D02*
X128890000Y-87975000D01*
X128890000Y-89825000D02*
X128890000Y-90270000D01*
%TO.C,R1*%
X115670000Y-93345000D02*
X115740000Y-93345000D01*
X115670000Y-93345000D02*
G75*
G03*
X112930000Y-93345000I-1370000J0D01*
G01*
X112930000Y-93345000D02*
G75*
G03*
X115670000Y-93345000I1370000J0D01*
G01*
%TO.C,TP2*%
X135735000Y-88960000D02*
G75*
G03*
X132235000Y-88960000I-1750000J0D01*
G01*
X132235000Y-88960000D02*
G75*
G03*
X135735000Y-88960000I1750000J0D01*
G01*
%TO.C,C2*%
X106039000Y-106330000D02*
X104781000Y-106330000D01*
X106039000Y-104490000D02*
X104781000Y-104490000D01*
%TO.C,R3*%
X94715000Y-82550000D02*
X94785000Y-82550000D01*
X94715000Y-82550000D02*
G75*
G03*
X91975000Y-82550000I-1370000J0D01*
G01*
X91975000Y-82550000D02*
G75*
G03*
X94715000Y-82550000I1370000J0D01*
G01*
%TO.C,SW1*%
X72280000Y-79890000D02*
X72280000Y-81273000D01*
X72280000Y-79890000D02*
X73664000Y-79890000D01*
X72520000Y-80130000D02*
X72520000Y-102751000D01*
X72520000Y-80130000D02*
X82420000Y-80130000D01*
X72520000Y-102751000D02*
X82420000Y-102751000D01*
X75440000Y-81915000D02*
X75440000Y-83185000D01*
X75440000Y-82035000D02*
X76793333Y-82035000D01*
X75440000Y-82155000D02*
X76793333Y-82155000D01*
X75440000Y-82275000D02*
X76793333Y-82275000D01*
X75440000Y-82395000D02*
X76793333Y-82395000D01*
X75440000Y-82515000D02*
X76793333Y-82515000D01*
X75440000Y-82635000D02*
X76793333Y-82635000D01*
X75440000Y-82755000D02*
X76793333Y-82755000D01*
X75440000Y-82875000D02*
X76793333Y-82875000D01*
X75440000Y-82995000D02*
X76793333Y-82995000D01*
X75440000Y-83115000D02*
X76793333Y-83115000D01*
X75440000Y-83185000D02*
X79500000Y-83185000D01*
X75440000Y-84455000D02*
X75440000Y-85725000D01*
X75440000Y-84575000D02*
X76793333Y-84575000D01*
X75440000Y-84695000D02*
X76793333Y-84695000D01*
X75440000Y-84815000D02*
X76793333Y-84815000D01*
X75440000Y-84935000D02*
X76793333Y-84935000D01*
X75440000Y-85055000D02*
X76793333Y-85055000D01*
X75440000Y-85175000D02*
X76793333Y-85175000D01*
X75440000Y-85295000D02*
X76793333Y-85295000D01*
X75440000Y-85415000D02*
X76793333Y-85415000D01*
X75440000Y-85535000D02*
X76793333Y-85535000D01*
X75440000Y-85655000D02*
X76793333Y-85655000D01*
X75440000Y-85725000D02*
X79500000Y-85725000D01*
X75440000Y-86995000D02*
X75440000Y-88265000D01*
X75440000Y-87115000D02*
X76793333Y-87115000D01*
X75440000Y-87235000D02*
X76793333Y-87235000D01*
X75440000Y-87355000D02*
X76793333Y-87355000D01*
X75440000Y-87475000D02*
X76793333Y-87475000D01*
X75440000Y-87595000D02*
X76793333Y-87595000D01*
X75440000Y-87715000D02*
X76793333Y-87715000D01*
X75440000Y-87835000D02*
X76793333Y-87835000D01*
X75440000Y-87955000D02*
X76793333Y-87955000D01*
X75440000Y-88075000D02*
X76793333Y-88075000D01*
X75440000Y-88195000D02*
X76793333Y-88195000D01*
X75440000Y-88265000D02*
X79500000Y-88265000D01*
X75440000Y-89535000D02*
X75440000Y-90805000D01*
X75440000Y-89655000D02*
X76793333Y-89655000D01*
X75440000Y-89775000D02*
X76793333Y-89775000D01*
X75440000Y-89895000D02*
X76793333Y-89895000D01*
X75440000Y-90015000D02*
X76793333Y-90015000D01*
X75440000Y-90135000D02*
X76793333Y-90135000D01*
X75440000Y-90255000D02*
X76793333Y-90255000D01*
X75440000Y-90375000D02*
X76793333Y-90375000D01*
X75440000Y-90495000D02*
X76793333Y-90495000D01*
X75440000Y-90615000D02*
X76793333Y-90615000D01*
X75440000Y-90735000D02*
X76793333Y-90735000D01*
X75440000Y-90805000D02*
X79500000Y-90805000D01*
X75440000Y-92075000D02*
X75440000Y-93345000D01*
X75440000Y-92195000D02*
X76793333Y-92195000D01*
X75440000Y-92315000D02*
X76793333Y-92315000D01*
X75440000Y-92435000D02*
X76793333Y-92435000D01*
X75440000Y-92555000D02*
X76793333Y-92555000D01*
X75440000Y-92675000D02*
X76793333Y-92675000D01*
X75440000Y-92795000D02*
X76793333Y-92795000D01*
X75440000Y-92915000D02*
X76793333Y-92915000D01*
X75440000Y-93035000D02*
X76793333Y-93035000D01*
X75440000Y-93155000D02*
X76793333Y-93155000D01*
X75440000Y-93275000D02*
X76793333Y-93275000D01*
X75440000Y-93345000D02*
X79500000Y-93345000D01*
X75440000Y-94615000D02*
X75440000Y-95885000D01*
X75440000Y-94735000D02*
X76793333Y-94735000D01*
X75440000Y-94855000D02*
X76793333Y-94855000D01*
X75440000Y-94975000D02*
X76793333Y-94975000D01*
X75440000Y-95095000D02*
X76793333Y-95095000D01*
X75440000Y-95215000D02*
X76793333Y-95215000D01*
X75440000Y-95335000D02*
X76793333Y-95335000D01*
X75440000Y-95455000D02*
X76793333Y-95455000D01*
X75440000Y-95575000D02*
X76793333Y-95575000D01*
X75440000Y-95695000D02*
X76793333Y-95695000D01*
X75440000Y-95815000D02*
X76793333Y-95815000D01*
X75440000Y-95885000D02*
X79500000Y-95885000D01*
X75440000Y-97155000D02*
X75440000Y-98425000D01*
X75440000Y-97275000D02*
X76793333Y-97275000D01*
X75440000Y-97395000D02*
X76793333Y-97395000D01*
X75440000Y-97515000D02*
X76793333Y-97515000D01*
X75440000Y-97635000D02*
X76793333Y-97635000D01*
X75440000Y-97755000D02*
X76793333Y-97755000D01*
X75440000Y-97875000D02*
X76793333Y-97875000D01*
X75440000Y-97995000D02*
X76793333Y-97995000D01*
X75440000Y-98115000D02*
X76793333Y-98115000D01*
X75440000Y-98235000D02*
X76793333Y-98235000D01*
X75440000Y-98355000D02*
X76793333Y-98355000D01*
X75440000Y-98425000D02*
X79500000Y-98425000D01*
X75440000Y-99695000D02*
X75440000Y-100965000D01*
X75440000Y-99815000D02*
X76793333Y-99815000D01*
X75440000Y-99935000D02*
X76793333Y-99935000D01*
X75440000Y-100055000D02*
X76793333Y-100055000D01*
X75440000Y-100175000D02*
X76793333Y-100175000D01*
X75440000Y-100295000D02*
X76793333Y-100295000D01*
X75440000Y-100415000D02*
X76793333Y-100415000D01*
X75440000Y-100535000D02*
X76793333Y-100535000D01*
X75440000Y-100655000D02*
X76793333Y-100655000D01*
X75440000Y-100775000D02*
X76793333Y-100775000D01*
X75440000Y-100895000D02*
X76793333Y-100895000D01*
X75440000Y-100965000D02*
X79500000Y-100965000D01*
X76793333Y-81915000D02*
X76793333Y-83185000D01*
X76793333Y-84455000D02*
X76793333Y-85725000D01*
X76793333Y-86995000D02*
X76793333Y-88265000D01*
X76793333Y-89535000D02*
X76793333Y-90805000D01*
X76793333Y-92075000D02*
X76793333Y-93345000D01*
X76793333Y-94615000D02*
X76793333Y-95885000D01*
X76793333Y-97155000D02*
X76793333Y-98425000D01*
X76793333Y-99695000D02*
X76793333Y-100965000D01*
X79500000Y-81915000D02*
X75440000Y-81915000D01*
X79500000Y-83185000D02*
X79500000Y-81915000D01*
X79500000Y-84455000D02*
X75440000Y-84455000D01*
X79500000Y-85725000D02*
X79500000Y-84455000D01*
X79500000Y-86995000D02*
X75440000Y-86995000D01*
X79500000Y-88265000D02*
X79500000Y-86995000D01*
X79500000Y-89535000D02*
X75440000Y-89535000D01*
X79500000Y-90805000D02*
X79500000Y-89535000D01*
X79500000Y-92075000D02*
X75440000Y-92075000D01*
X79500000Y-93345000D02*
X79500000Y-92075000D01*
X79500000Y-94615000D02*
X75440000Y-94615000D01*
X79500000Y-95885000D02*
X79500000Y-94615000D01*
X79500000Y-97155000D02*
X75440000Y-97155000D01*
X79500000Y-98425000D02*
X79500000Y-97155000D01*
X79500000Y-99695000D02*
X75440000Y-99695000D01*
X79500000Y-100965000D02*
X79500000Y-99695000D01*
X82420000Y-80130000D02*
X82420000Y-102751000D01*
%TO.C,R9*%
X115670000Y-96520000D02*
X115740000Y-96520000D01*
X115670000Y-96520000D02*
G75*
G03*
X112930000Y-96520000I-1370000J0D01*
G01*
X112930000Y-96520000D02*
G75*
G03*
X115670000Y-96520000I1370000J0D01*
G01*
%TO.C,R13*%
X127100000Y-92710000D02*
X127170000Y-92710000D01*
X127100000Y-92710000D02*
G75*
G03*
X124360000Y-92710000I-1370000J0D01*
G01*
X124360000Y-92710000D02*
G75*
G03*
X127100000Y-92710000I1370000J0D01*
G01*
%TO.C,R4*%
X94715000Y-92075000D02*
X94785000Y-92075000D01*
X94715000Y-92075000D02*
G75*
G03*
X91975000Y-92075000I-1370000J0D01*
G01*
X91975000Y-92075000D02*
G75*
G03*
X94715000Y-92075000I1370000J0D01*
G01*
%TO.C,R6*%
X94715000Y-95250000D02*
X94785000Y-95250000D01*
X94715000Y-95250000D02*
G75*
G03*
X91975000Y-95250000I-1370000J0D01*
G01*
X91975000Y-95250000D02*
G75*
G03*
X94715000Y-95250000I1370000J0D01*
G01*
%TO.C,R7*%
X94715000Y-88900000D02*
X94785000Y-88900000D01*
X94715000Y-88900000D02*
G75*
G03*
X91975000Y-88900000I-1370000J0D01*
G01*
X91975000Y-88900000D02*
G75*
G03*
X94715000Y-88900000I1370000J0D01*
G01*
%TO.C,R10*%
X115670000Y-99695000D02*
X115740000Y-99695000D01*
X115670000Y-99695000D02*
G75*
G03*
X112930000Y-99695000I-1370000J0D01*
G01*
X112930000Y-99695000D02*
G75*
G03*
X115670000Y-99695000I1370000J0D01*
G01*
%TO.C,R11*%
X126900000Y-83820000D02*
X126830000Y-83820000D01*
X129640000Y-83820000D02*
G75*
G03*
X126900000Y-83820000I-1370000J0D01*
G01*
X126900000Y-83820000D02*
G75*
G03*
X129640000Y-83820000I1370000J0D01*
G01*
%TO.C,TP4*%
X135735000Y-99060000D02*
G75*
G03*
X132235000Y-99060000I-1750000J0D01*
G01*
X132235000Y-99060000D02*
G75*
G03*
X135735000Y-99060000I1750000J0D01*
G01*
%TO.C,R2*%
X115670000Y-90170000D02*
X115740000Y-90170000D01*
X115670000Y-90170000D02*
G75*
G03*
X112930000Y-90170000I-1370000J0D01*
G01*
X112930000Y-90170000D02*
G75*
G03*
X115670000Y-90170000I1370000J0D01*
G01*
%TO.C,TP3*%
X135735000Y-94010000D02*
G75*
G03*
X132235000Y-94010000I-1750000J0D01*
G01*
X132235000Y-94010000D02*
G75*
G03*
X135735000Y-94010000I1750000J0D01*
G01*
%TO.C,U1*%
X103160000Y-79950000D02*
X103160000Y-102930000D01*
X103160000Y-102930000D02*
X107660000Y-102930000D01*
X104410000Y-79950000D02*
X103160000Y-79950000D01*
X107660000Y-79950000D02*
X106410000Y-79950000D01*
X107660000Y-102930000D02*
X107660000Y-79950000D01*
X104410000Y-79950000D02*
G75*
G03*
X106410000Y-79950000I1000000J0D01*
G01*
%TO.C,R8*%
X94715000Y-85725000D02*
X94785000Y-85725000D01*
X94715000Y-85725000D02*
G75*
G03*
X91975000Y-85725000I-1370000J0D01*
G01*
X91975000Y-85725000D02*
G75*
G03*
X94715000Y-85725000I1370000J0D01*
G01*
%TO.C,TP1*%
X135735000Y-83820000D02*
G75*
G03*
X132235000Y-83820000I-1750000J0D01*
G01*
X132235000Y-83820000D02*
G75*
G03*
X135735000Y-83820000I1750000J0D01*
G01*
%TO.C,R12*%
X126595000Y-105410000D02*
X125825000Y-105410000D01*
X125825000Y-106780000D02*
X125825000Y-104040000D01*
X125825000Y-104040000D02*
X119285000Y-104040000D01*
X119285000Y-106780000D02*
X125825000Y-106780000D01*
X119285000Y-104040000D02*
X119285000Y-106780000D01*
X118515000Y-105410000D02*
X119285000Y-105410000D01*
%TO.C,Q1*%
X121390000Y-103450000D02*
X124990000Y-103450000D01*
X123190000Y-99000000D02*
G75*
G03*
X121351522Y-103438478I0J-2600000D01*
G01*
X125028478Y-103438478D02*
G75*
G03*
X123190000Y-99000000I-1838478J1838478D01*
G01*
%TO.C,Hdr2*%
X128330000Y-95190000D02*
X128330000Y-96520000D01*
X127000000Y-95190000D02*
X128330000Y-95190000D01*
X125730000Y-95190000D02*
X120590000Y-95190000D01*
X125730000Y-95190000D02*
X125730000Y-97850000D01*
X120590000Y-95190000D02*
X120590000Y-97850000D01*
X125730000Y-97850000D02*
X120590000Y-97850000D01*
%TD*%
M02*
